Playfair Display-Regular Italic.ufo
<glyph name="period" format="1">
  <advance width="244"/>
  <unicode hex="002E"/>
  <outline>
    <contour>
      <point x="-7" y="15"/>
      <point x="15" y="-14"/>
      <point x="49" y="-14" type="curve" smooth="yes"/>
      <point x="84" y="-14"/>
      <point x="116" y="15"/>
      <point x="123" y="50" type="curve" smooth="yes"/>
      <point x="129" y="85"/>
      <point x="108" y="114"/>
      <point x="73" y="114" type="curve" smooth="yes"/>
      <point x="39" y="114"/>
      <point x="6" y="85"/>
      <point x="0" y="50" type="curve" smooth="yes"/>
    </contour>
  </outline>
</glyph>
<glyph name="zero" format="1">
  <advance width="565"/>
  <unicode hex="0030"/>
  <outline>
    <contour>
      <point x="183" y="529"/>
      <point x="31" y="344"/>
      <point x="31" y="164" type="curve" smooth="yes"/>
      <point x="31" y="48"/>
      <point x="94" y="-14"/>
      <point x="195" y="-14" type="curve" smooth="yes"/>
      <point x="369" y="-14"/>
      <point x="513" y="172"/>
      <point x="513" y="352" type="curve" smooth="yes"/>
      <point x="513" y="463"/>
      <point x="459" y="529"/>
      <point x="356" y="529" type="curve" smooth="yes"/>
    </contour>
    <contour>
      <point x="387" y="511"/>
      <point x="421" y="475"/>
      <point x="421" y="367" type="curve" smooth="yes"/>
      <point x="421" y="190"/>
      <point x="330" y="4"/>
      <point x="214" y="4" type="curve" smooth="yes"/>
      <point x="162" y="4"/>
      <point x="123" y="42"/>
      <point x="123" y="155" type="curve" smooth="yes"/>
      <point x="123" y="339"/>
      <point x="227" y="511"/>
      <point x="337" y="511" type="curve" smooth="yes"/>
    </contour>
  </outline>
</glyph>
<glyph name="three" format="1">
  <advance width="485"/>
  <unicode hex="0033"/>
  <outline>
    <contour>
      <point x="183" y="531"/>
      <point x="85" y="450"/>
      <point x="85" y="377" type="curve" smooth="yes"/>
      <point x="85" y="321"/>
      <point x="127" y="309"/>
      <point x="160" y="309" type="curve" smooth="yes"/>
      <point x="184" y="309"/>
      <point x="212" y="315"/>
      <point x="240" y="330" type="curve"/>
      <point x="229" y="345" type="line"/>
      <point x="210" y="335"/>
      <point x="191" y="330"/>
      <point x="167" y="330" type="curve" smooth="yes"/>
      <point x="125" y="330"/>
      <point x="109" y="346"/>
      <point x="109" y="378" type="curve" smooth="yes"/>
      <point x="109" y="443"/>
      <point x="201" y="509"/>
      <point x="270" y="509" type="curve" smooth="yes"/>
      <point x="321" y="509"/>
      <point x="352" y="475"/>
      <point x="352" y="419" type="curve" smooth="yes"/>
      <point x="352" y="344"/>
      <point x="283" y="280"/>
      <point x="205" y="250" type="curve"/>
      <point x="170" y="252"/>
      <point x="142" y="250"/>
      <point x="138" y="232" type="curve"/>
      <point x="134" y="220"/>
      <point x="144" y="217"/>
      <point x="155" y="217" type="curve" smooth="yes"/>
      <point x="172" y="217"/>
      <point x="191" y="225"/>
      <point x="213" y="234" type="curve"/>
      <point x="267" y="231"/>
      <point x="298" y="196"/>
      <point x="298" y="143" type="curve" smooth="yes"/>
      <point x="298" y="-32"/>
      <point x="84" y="-123"/>
      <point x="-75" y="-133" type="curve"/>
      <point x="-80" y="-151" type="line"/>
      <point x="105" y="-148"/>
      <point x="391" y="-48"/>
      <point x="391" y="136" type="curve" smooth="yes"/>
      <point x="391" y="210"/>
      <point x="320" y="248"/>
      <point x="231" y="250" type="curve"/>
      <point x="320" y="273"/>
      <point x="438" y="341"/>
      <point x="438" y="432" type="curve" smooth="yes"/>
      <point x="438" y="496"/>
      <point x="384" y="531"/>
      <point x="303" y="531" type="curve" smooth="yes"/>
    </contour>
  </outline>
</glyph>
<glyph name="six" format="1">
  <advance width="527"/>
  <unicode hex="0036"/>
  <outline>
    <contour>
      <point x="344" y="688"/>
      <point x="36" y="469"/>
      <point x="36" y="165" type="curve" smooth="yes"/>
      <point x="36" y="47"/>
      <point x="82" y="-14"/>
      <point x="183" y="-14" type="curve" smooth="yes"/>
      <point x="339" y="-14"/>
      <point x="473" y="131"/>
      <point x="473" y="288" type="curve" smooth="yes"/>
      <point x="473" y="385"/>
      <point x="422" y="438"/>
      <point x="347" y="438" type="curve" smooth="yes"/>
      <point x="288" y="438"/>
      <point x="216" y="406"/>
      <point x="180" y="293" type="curve"/>
      <point x="196" y="287" type="line"/>
      <point x="229" y="380"/>
      <point x="275" y="409"/>
      <point x="314" y="409" type="curve" smooth="yes"/>
      <point x="354" y="409"/>
      <point x="379" y="379"/>
      <point x="379" y="308" type="curve" smooth="yes"/>
      <point x="379" y="191"/>
      <point x="312" y="6"/>
      <point x="199" y="6" type="curve" smooth="yes"/>
      <point x="155" y="6"/>
      <point x="127" y="34"/>
      <point x="127" y="137" type="curve" smooth="yes"/>
      <point x="127" y="420"/>
      <point x="341" y="657"/>
      <point x="530" y="702" type="curve"/>
      <point x="524" y="722" type="line"/>
    </contour>
  </outline>
</glyph>
<glyph name="eight" format="1">
  <advance width="544"/>
  <unicode hex="0038"/>
  <outline>
    <contour>
      <point x="278" y="722"/>
      <point x="157" y="650"/>
      <point x="157" y="538" type="curve" smooth="yes"/>
      <point x="157" y="379"/>
      <point x="369" y="336"/>
      <point x="369" y="172" type="curve" smooth="yes"/>
      <point x="369" y="65"/>
      <point x="285" y="4"/>
      <point x="196" y="4" type="curve" smooth="yes"/>
      <point x="122" y="4"/>
      <point x="98" y="46"/>
      <point x="98" y="106" type="curve" smooth="yes"/>
      <point x="98" y="209"/>
      <point x="167" y="308"/>
      <point x="263" y="360" type="curve"/>
      <point x="259" y="374" type="line"/>
      <point x="146" y="327"/>
      <point x="10" y="238"/>
      <point x="10" y="115" type="curve" smooth="yes"/>
      <point x="10" y="24"/>
      <point x="85" y="-14"/>
      <point x="187" y="-14" type="curve" smooth="yes"/>
      <point x="336" y="-14"/>
      <point x="458" y="66"/>
      <point x="458" y="193" type="curve" smooth="yes"/>
      <point x="458" y="363"/>
      <point x="240" y="416"/>
      <point x="240" y="560" type="curve" smooth="yes"/>
      <point x="240" y="645"/>
      <point x="303" y="704"/>
      <point x="378" y="704" type="curve" smooth="yes"/>
      <point x="430" y="704"/>
      <point x="456" y="675"/>
      <point x="456" y="619" type="curve" smooth="yes"/>
      <point x="456" y="532"/>
      <point x="392" y="448"/>
      <point x="323" y="404" type="curve"/>
      <point x="327" y="390" type="line"/>
      <point x="417" y="436"/>
      <point x="537" y="513"/>
      <point x="537" y="616" type="curve" smooth="yes"/>
      <point x="537" y="689"/>
      <point x="476" y="722"/>
      <point x="396" y="722" type="curve" smooth="yes"/>
    </contour>
  </outline>
</glyph>
<glyph name="I" format="1">
  <advance width="341"/>
  <unicode hex="0049"/>
  <outline>
    <contour>
      <point x="298" y="602" type="line" smooth="yes"/>
      <point x="317" y="675"/>
      <point x="332" y="685"/>
      <point x="401" y="688" type="curve"/>
      <point x="406" y="708" type="line"/>
      <point x="374" y="706"/>
      <point x="324" y="705"/>
      <point x="278" y="705" type="curve" smooth="yes"/>
      <point x="226" y="705"/>
      <point x="178" y="706"/>
      <point x="151" y="708" type="curve"/>
      <point x="146" y="688" type="line"/>
      <point x="213" y="685"/>
      <point x="224" y="675"/>
      <point x="205" y="602" type="curve" smooth="yes"/>
      <point x="73" y="106" type="line" smooth="yes"/>
      <point x="54" y="33"/>
      <point x="38" y="23"/>
      <point x="-28" y="20" type="curve"/>
      <point x="-33" y="0" type="line"/>
      <point x="-4" y="2"/>
      <point x="42" y="3"/>
      <point x="94" y="3" type="curve" smooth="yes"/>
      <point x="140" y="3"/>
      <point x="190" y="2"/>
      <point x="221" y="0" type="curve"/>
      <point x="225" y="20" type="line"/>
      <point x="157" y="23"/>
      <point x="147" y="33"/>
      <point x="166" y="106" type="curve" smooth="yes"/>
    </contour>
    <contour>
      <point x="221" y="0" type="move" name="ogonek"/>
    </contour>
    <contour>
      <point x="94" y="0" type="move" name="bottom"/>
    </contour>
    <contour>
      <point x="298" y="708" type="move" name="top"/>
    </contour>
  </outline>
</glyph>
<glyph name="O" format="1">
  <advance width="729"/>
  <unicode hex="004F"/>
  <outline>
    <contour>
      <point x="543" y="704"/>
      <point x="600" y="626"/>
      <point x="600" y="495" type="curve" smooth="yes"/>
      <point x="600" y="254"/>
      <point x="453" y="4"/>
      <point x="298" y="4" type="curve" smooth="yes"/>
      <point x="217" y="4"/>
      <point x="160" y="82"/>
      <point x="160" y="213" type="curve" smooth="yes"/>
      <point x="160" y="454"/>
      <point x="307" y="704"/>
      <point x="462" y="704" type="curve" smooth="yes"/>
    </contour>
    <contour>
      <point x="54" y="73"/>
      <point x="141" y="-14"/>
      <point x="289" y="-14" type="curve" smooth="yes"/>
      <point x="540" y="-14"/>
      <point x="707" y="261"/>
      <point x="707" y="481" type="curve" smooth="yes"/>
      <point x="707" y="635"/>
      <point x="619" y="722"/>
      <point x="471" y="722" type="curve" smooth="yes"/>
      <point x="219" y="722"/>
      <point x="54" y="447"/>
      <point x="54" y="226" type="curve" smooth="yes"/>
    </contour>
    <contour>
      <point x="493" y="708" type="move" name="top"/>
    </contour>
    <contour>
      <point x="295" y="0" type="move" name="bottom"/>
    </contour>
  </outline>
</glyph>
<glyph name="asciicircum" format="1">
  <advance width="535"/>
  <unicode hex="005E"/>
  <outline>
    <contour>
      <point x="323" y="398"/>
      <point x="393" y="351"/>
      <point x="465" y="322" type="curve"/>
      <point x="477" y="336" type="line"/>
      <point x="401" y="378"/>
      <point x="352" y="453"/>
      <point x="341" y="528" type="curve"/>
      <point x="323" y="528" type="line"/>
      <point x="272" y="453"/>
      <point x="183" y="378"/>
      <point x="85" y="336" type="curve"/>
      <point x="89" y="322" type="line"/>
      <point x="161" y="351"/>
      <point x="239" y="398"/>
      <point x="289" y="442" type="curve"/>
    </contour>
  </outline>
</glyph>
<glyph name="c" format="1">
  <advance width="432"/>
  <unicode hex="0063"/>
  <outline>
    <contour>
      <point x="357" y="508"/>
      <point x="378" y="496"/>
      <point x="391" y="477" type="curve"/>
      <point x="352" y="470"/>
      <point x="316" y="441"/>
      <point x="316" y="402" type="curve" smooth="yes"/>
      <point x="316" y="381"/>
      <point x="329" y="363"/>
      <point x="357" y="363" type="curve" smooth="yes"/>
      <point x="401" y="363"/>
      <point x="428" y="405"/>
      <point x="428" y="443" type="curve" smooth="yes"/>
      <point x="428" y="496"/>
      <point x="379" y="528"/>
      <point x="320" y="528" type="curve" smooth="yes"/>
      <point x="133" y="528"/>
      <point x="18" y="287"/>
      <point x="18" y="133" type="curve" smooth="yes"/>
      <point x="18" y="35"/>
      <point x="70" y="-14"/>
      <point x="150" y="-14" type="curve" smooth="yes"/>
      <point x="235" y="-14"/>
      <point x="312" y="53"/>
      <point x="351" y="120" type="curve"/>
      <point x="331" y="128" type="line"/>
      <point x="280" y="53"/>
      <point x="229" y="28"/>
      <point x="181" y="28" type="curve" smooth="yes"/>
      <point x="139" y="28"/>
      <point x="111" y="56"/>
      <point x="111" y="124" type="curve" smooth="yes"/>
      <point x="111" y="327"/>
      <point x="221" y="508"/>
      <point x="323" y="508" type="curve" smooth="yes"/>
    </contour>
    <contour>
      <point x="310" y="514" type="move" name="top"/>
    </contour>
    <contour>
      <point x="143" y="0" type="move" name="bottom"/>
    </contour>
  </outline>
</glyph>
<glyph name="e" format="1">
  <advance width="429"/>
  <unicode hex="0065"/>
  <outline>
    <contour>
      <point x="83" y="210" type="line"/>
      <point x="192" y="243"/>
      <point x="416" y="327"/>
      <point x="416" y="462" type="curve" smooth="yes"/>
      <point x="416" y="506"/>
      <point x="383" y="528"/>
      <point x="342" y="528" type="curve" smooth="yes"/>
      <point x="152" y="528"/>
      <point x="12" y="272"/>
      <point x="12" y="127" type="curve" smooth="yes"/>
      <point x="12" y="34"/>
      <point x="63" y="-14"/>
      <point x="144" y="-14" type="curve" smooth="yes"/>
      <point x="229" y="-14"/>
      <point x="306" y="53"/>
      <point x="345" y="120" type="curve"/>
      <point x="329" y="128" type="line"/>
      <point x="278" y="53"/>
      <point x="223" y="28"/>
      <point x="175" y="28" type="curve" smooth="yes"/>
      <point x="133" y="28"/>
      <point x="106" y="56"/>
      <point x="106" y="124" type="curve" smooth="yes"/>
      <point x="106" y="308"/>
      <point x="237" y="509"/>
      <point x="320" y="509" type="curve" smooth="yes"/>
      <point x="330" y="509"/>
      <point x="336" y="502"/>
      <point x="336" y="464" type="curve" smooth="yes"/>
      <point x="336" y="398"/>
      <point x="306" y="342"/>
      <point x="258" y="304" type="curve" smooth="yes"/>
      <point x="222" y="276"/>
      <point x="159" y="252"/>
      <point x="84" y="227" type="curve"/>
    </contour>
    <contour>
      <point x="207" y="0" type="move" name="ogonek"/>
    </contour>
    <contour>
      <point x="154" y="0" type="move" name="bottom"/>
    </contour>
    <contour>
      <point x="309" y="514" type="move" name="top"/>
    </contour>
  </outline>
</glyph>
<glyph name="s" format="1">
  <advance width="381"/>
  <unicode hex="0073"/>
  <outline>
    <contour>
      <point x="62" y="30"/>
      <point x="66" y="46"/>
      <point x="66" y="67" type="curve" smooth="yes"/>
      <point x="66" y="99"/>
      <point x="54" y="130"/>
      <point x="22" y="130" type="curve" smooth="yes"/>
      <point x="-8" y="130"/>
      <point x="-17" y="104"/>
      <point x="-17" y="85" type="curve" smooth="yes"/>
      <point x="-17" y="13"/>
      <point x="49" y="-14"/>
      <point x="118" y="-14" type="curve" smooth="yes"/>
      <point x="211" y="-14"/>
      <point x="290" y="50"/>
      <point x="290" y="143" type="curve" smooth="yes"/>
      <point x="290" y="195"/>
      <point x="264" y="239"/>
      <point x="231" y="290" type="curve" smooth="yes"/>
      <point x="192" y="348"/>
      <point x="171" y="369"/>
      <point x="171" y="415" type="curve" smooth="yes"/>
      <point x="171" y="475"/>
      <point x="208" y="510"/>
      <point x="258" y="510" type="curve" smooth="yes"/>
      <point x="278" y="510"/>
      <point x="295" y="506"/>
      <point x="308" y="498" type="curve"/>
      <point x="291" y="477"/>
      <point x="280" y="455"/>
      <point x="280" y="431" type="curve" smooth="yes"/>
      <point x="280" y="406"/>
      <point x="298" y="389"/>
      <point x="320" y="389" type="curve" smooth="yes"/>
      <point x="354" y="389"/>
      <point x="366" y="422"/>
      <point x="366" y="441" type="curve" smooth="yes"/>
      <point x="366" y="512"/>
      <point x="301" y="528"/>
      <point x="244" y="528" type="curve" smooth="yes"/>
      <point x="159" y="528"/>
      <point x="89" y="471"/>
      <point x="89" y="386" type="curve" smooth="yes"/>
      <point x="89" y="325"/>
      <point x="123" y="283"/>
      <point x="154" y="241" type="curve" smooth="yes"/>
      <point x="193" y="188"/>
      <point x="206" y="150"/>
      <point x="206" y="109" type="curve" smooth="yes"/>
      <point x="206" y="42"/>
      <point x="164" y="6"/>
      <point x="105" y="6" type="curve" smooth="yes"/>
      <point x="80" y="6"/>
      <point x="70" y="10"/>
      <point x="59" y="15" type="curve"/>
    </contour>
    <contour>
      <point x="266" y="514" type="move" name="top"/>
    </contour>
    <contour>
      <point x="113" y="0" type="move" name="bottom"/>
    </contour>
  </outline>
</glyph>
<glyph name="z" format="1">
  <advance width="445"/>
  <unicode hex="007A"/>
  <outline>
    <contour>
      <point x="476" y="514" type="line"/>
      <point x="449" y="514" type="line"/>
      <point x="421" y="485"/>
      <point x="394" y="477"/>
      <point x="359" y="477" type="curve" smooth="yes"/>
      <point x="282" y="477"/>
      <point x="257" y="520"/>
      <point x="187" y="520" type="curve" smooth="yes"/>
      <point x="102" y="520"/>
      <point x="71" y="468"/>
      <point x="71" y="415" type="curve" smooth="yes"/>
      <point x="71" y="364"/>
      <point x="107" y="332"/>
      <point x="168" y="318" type="curve"/>
      <point x="174" y="333" type="line"/>
      <point x="128" y="342"/>
      <point x="95" y="369"/>
      <point x="95" y="405" type="curve" smooth="yes"/>
      <point x="95" y="439"/>
      <point x="116" y="455"/>
      <point x="150" y="455" type="curve" smooth="yes"/>
      <point x="201" y="455"/>
      <point x="237" y="423"/>
      <point x="285" y="423" type="curve" smooth="yes"/>
      <point x="322" y="423"/>
      <point x="355" y="439"/>
      <point x="412" y="475" type="curve"/>
      <point x="-39" y="0" type="line"/>
      <point x="-12" y="0" type="line"/>
      <point x="16" y="29"/>
      <point x="43" y="37"/>
      <point x="78" y="37" type="curve" smooth="yes"/>
      <point x="155" y="37"/>
      <point x="180" y="-6"/>
      <point x="250" y="-6" type="curve" smooth="yes"/>
      <point x="335" y="-6"/>
      <point x="366" y="46"/>
      <point x="366" y="99" type="curve" smooth="yes"/>
      <point x="366" y="150"/>
      <point x="330" y="182"/>
      <point x="269" y="196" type="curve"/>
      <point x="263" y="181" type="line"/>
      <point x="309" y="172"/>
      <point x="342" y="145"/>
      <point x="342" y="109" type="curve" smooth="yes"/>
      <point x="342" y="75"/>
      <point x="321" y="59"/>
      <point x="287" y="59" type="curve" smooth="yes"/>
      <point x="236" y="59"/>
      <point x="200" y="91"/>
      <point x="152" y="91" type="curve" smooth="yes"/>
      <point x="115" y="91"/>
      <point x="82" y="75"/>
      <point x="25" y="39" type="curve"/>
    </contour>
    <contour>
      <point x="286" y="514" type="move" name="top"/>
    </contour>
    <contour>
      <point x="128" y="0" type="move" name="bottom"/>
    </contour>
  </outline>
</glyph>
<glyph name="asciitilde" format="1">
  <advance width="649"/>
  <unicode hex="007E"/>
  <outline>
    <contour>
      <point x="494" y="237"/>
      <point x="555" y="278"/>
      <point x="585" y="344" type="curve"/>
      <point x="571" y="349" type="line"/>
      <point x="544" y="306"/>
      <point x="507" y="291"/>
      <point x="470" y="291" type="curve" smooth="yes"/>
      <point x="376" y="291"/>
      <point x="335" y="369"/>
      <point x="233" y="369" type="curve" smooth="yes"/>
      <point x="159" y="369"/>
      <point x="98" y="328"/>
      <point x="68" y="262" type="curve"/>
      <point x="82" y="257" type="line"/>
      <point x="109" y="300"/>
      <point x="146" y="315"/>
      <point x="183" y="315" type="curve" smooth="yes"/>
      <point x="277" y="315"/>
      <point x="318" y="237"/>
      <point x="420" y="237" type="curve" smooth="yes"/>
    </contour>
  </outline>
</glyph>
<glyph name="yen" format="1">
  <advance width="703"/>
  <unicode hex="00A5"/>
  <outline>
    <contour>
      <point x="148" y="217" type="line"/>
      <point x="143" y="197" type="line"/>
      <point x="516" y="197" type="line"/>
      <point x="521" y="217" type="line"/>
    </contour>
    <contour>
      <point x="170" y="297" type="line"/>
      <point x="165" y="277" type="line"/>
      <point x="538" y="277" type="line"/>
      <point x="543" y="297" type="line"/>
    </contour>
    <component base="Y" xOffset="8"/>
  </outline>
</glyph>
<glyph name="section" format="1">
  <advance width="508"/>
  <unicode hex="00A7"/>
  <outline>
    <contour>
      <point x="438" y="718"/>
      <point x="411" y="695"/>
      <point x="411" y="663" type="curve" smooth="yes"/>
      <point x="411" y="637"/>
      <point x="428" y="621"/>
      <point x="454" y="621" type="curve" smooth="yes"/>
      <point x="494" y="621"/>
      <point x="522" y="656"/>
      <point x="522" y="692" type="curve" smooth="yes"/>
      <point x="522" y="757"/>
      <point x="439" y="782"/>
      <point x="381" y="782" type="curve" smooth="yes"/>
      <point x="266" y="782"/>
      <point x="161" y="696"/>
      <point x="161" y="585" type="curve" smooth="yes"/>
      <point x="161" y="509"/>
      <point x="221" y="461"/>
      <point x="295" y="400" type="curve" smooth="yes"/>
      <point x="350" y="354"/>
      <point x="400" y="311"/>
      <point x="400" y="256" type="curve" smooth="yes"/>
      <point x="400" y="189"/>
      <point x="335" y="145"/>
      <point x="284" y="119" type="curve"/>
      <point x="291" y="105" type="line"/>
      <point x="383" y="147"/>
      <point x="465" y="216"/>
      <point x="465" y="312" type="curve" smooth="yes"/>
      <point x="465" y="373"/>
      <point x="424" y="414"/>
      <point x="361" y="467" type="curve" smooth="yes"/>
      <point x="304" y="515"/>
      <point x="239" y="564"/>
      <point x="239" y="630" type="curve" smooth="yes"/>
      <point x="239" y="731"/>
      <point x="315" y="763"/>
      <point x="381" y="763" type="curve" smooth="yes"/>
      <point x="409" y="763"/>
      <point x="460" y="757"/>
      <point x="469" y="727" type="curve"/>
    </contour>
    <contour>
      <point x="99" y="-169"/>
      <point x="48" y="-161"/>
      <point x="39" y="-133" type="curve"/>
      <point x="71" y="-124"/>
      <point x="97" y="-100"/>
      <point x="97" y="-67" type="curve" smooth="yes"/>
      <point x="97" y="-42"/>
      <point x="80" y="-27"/>
      <point x="54" y="-27" type="curve" smooth="yes"/>
      <point x="16" y="-27"/>
      <point x="-13" y="-61"/>
      <point x="-13" y="-95" type="curve" smooth="yes"/>
      <point x="-13" y="-164"/>
      <point x="68" y="-188"/>
      <point x="127" y="-188" type="curve" smooth="yes"/>
      <point x="242" y="-188"/>
      <point x="347" y="-102"/>
      <point x="347" y="9" type="curve" smooth="yes"/>
      <point x="347" y="85"/>
      <point x="287" y="133"/>
      <point x="213" y="194" type="curve" smooth="yes"/>
      <point x="158" y="240"/>
      <point x="108" y="284"/>
      <point x="108" y="338" type="curve" smooth="yes"/>
      <point x="108" y="405"/>
      <point x="173" y="449"/>
      <point x="224" y="475" type="curve"/>
      <point x="217" y="489" type="line"/>
      <point x="125" y="447"/>
      <point x="43" y="378"/>
      <point x="43" y="282" type="curve" smooth="yes"/>
      <point x="43" y="221"/>
      <point x="84" y="180"/>
      <point x="147" y="127" type="curve" smooth="yes"/>
      <point x="204" y="79"/>
      <point x="269" y="31"/>
      <point x="269" y="-34" type="curve" smooth="yes"/>
      <point x="269" y="-136"/>
      <point x="195" y="-169"/>
      <point x="127" y="-169" type="curve" smooth="yes"/>
    </contour>
  </outline>
</glyph>
<glyph name="guillemotleft" format="1">
  <advance width="517"/>
  <unicode hex="00AB"/>
  <outline>
    <contour>
      <point x="300" y="528" type="line"/>
      <point x="217" y="414"/>
      <point x="130" y="320"/>
      <point x="24" y="245" type="curve"/>
      <point x="24" y="243" type="line"/>
      <point x="108" y="178"/>
      <point x="170" y="88"/>
      <point x="222" y="-14" type="curve"/>
      <point x="240" y="-14" type="line"/>
      <point x="221" y="64"/>
      <point x="157" y="196"/>
      <point x="99" y="244" type="curve"/>
      <point x="174" y="299"/>
      <point x="277" y="441"/>
      <point x="318" y="528" type="curve"/>
    </contour>
    <contour>
      <point x="465" y="528" type="line"/>
      <point x="382" y="414"/>
      <point x="295" y="320"/>
      <point x="189" y="245" type="curve"/>
      <point x="189" y="243" type="line"/>
      <point x="273" y="178"/>
      <point x="335" y="88"/>
      <point x="387" y="-14" type="curve"/>
      <point x="405" y="-14" type="line"/>
      <point x="386" y="64"/>
      <point x="322" y="196"/>
      <point x="264" y="244" type="curve"/>
      <point x="340" y="299"/>
      <point x="445" y="442"/>
      <point x="483" y="528" type="curve"/>
    </contour>
  </outline>
</glyph>
<glyph name="logicalnot" format="1">
  <advance width="661"/>
  <unicode hex="00AC"/>
  <outline>
    <contour>
      <point x="559" y="340" type="line"/>
      <point x="509" y="165" type="line"/>
      <point x="545" y="165" type="line"/>
      <point x="604" y="370" type="line"/>
      <point x="103" y="370" type="line"/>
      <point x="94" y="340" type="line"/>
    </contour>
  </outline>
</glyph>
<glyph name="registered" format="1">
  <advance width="699"/>
  <unicode hex="00AE"/>
  <outline>
    <contour>
      <point x="251" y="782"/>
      <point x="126" y="657"/>
      <point x="126" y="503" type="curve" smooth="yes"/>
      <point x="126" y="349"/>
      <point x="251" y="224"/>
      <point x="405" y="224" type="curve" smooth="yes"/>
      <point x="559" y="224"/>
      <point x="684" y="349"/>
      <point x="684" y="503" type="curve" smooth="yes"/>
      <point x="684" y="657"/>
      <point x="559" y="782"/>
      <point x="405" y="782" type="curve" smooth="yes"/>
    </contour>
    <contour>
      <point x="338" y="505" type="line"/>
      <point x="429" y="505"/>
      <point x="439" y="499"/>
      <point x="448" y="459" type="curve" smooth="yes"/>
      <point x="465" y="385" type="line" smooth="yes"/>
      <point x="472" y="357"/>
      <point x="485" y="344"/>
      <point x="520" y="344" type="curve" smooth="yes"/>
      <point x="542" y="344"/>
      <point x="556" y="349"/>
      <point x="564" y="365" type="curve"/>
      <point x="554" y="372" type="line"/>
      <point x="551" y="366"/>
      <point x="546" y="364"/>
      <point x="542" y="364" type="curve" smooth="yes"/>
      <point x="529" y="364"/>
      <point x="528" y="380"/>
      <point x="524" y="397" type="curve" smooth="yes"/>
      <point x="512" y="454" type="line" smooth="yes"/>
      <point x="505" y="489"/>
      <point x="487" y="508"/>
      <point x="425" y="513" type="curve"/>
      <point x="402" y="517"/>
      <point x="403" y="520"/>
      <point x="336" y="520" type="curve"/>
    </contour>
    <contour>
      <point x="537" y="750"/>
      <point x="642" y="638"/>
      <point x="642" y="503" type="curve" smooth="yes"/>
      <point x="642" y="368"/>
      <point x="537" y="256"/>
      <point x="405" y="256" type="curve" smooth="yes"/>
      <point x="273" y="256"/>
      <point x="168" y="368"/>
      <point x="168" y="503" type="curve" smooth="yes"/>
      <point x="168" y="638"/>
      <point x="273" y="750"/>
      <point x="405" y="750" type="curve" smooth="yes"/>
    </contour>
    <contour>
      <point x="400" y="676"/>
      <point x="365" y="675"/>
      <point x="328" y="675" type="curve" smooth="yes"/>
      <point x="311" y="675"/>
      <point x="292" y="675"/>
      <point x="280" y="676" type="curve"/>
      <point x="280" y="661" type="line"/>
      <point x="299" y="659"/>
      <point x="303" y="655"/>
      <point x="303" y="623" type="curve" smooth="yes"/>
      <point x="303" y="404" type="line" smooth="yes"/>
      <point x="303" y="373"/>
      <point x="299" y="369"/>
      <point x="280" y="367" type="curve"/>
      <point x="280" y="352" type="line"/>
      <point x="292" y="352"/>
      <point x="311" y="353"/>
      <point x="332" y="353" type="curve" smooth="yes"/>
      <point x="350" y="353"/>
      <point x="370" y="352"/>
      <point x="383" y="352" type="curve"/>
      <point x="383" y="367" type="line"/>
      <point x="364" y="369"/>
      <point x="360" y="373"/>
      <point x="360" y="404" type="curve" smooth="yes"/>
      <point x="360" y="628" type="line" smooth="yes"/>
      <point x="360" y="655"/>
      <point x="366" y="661"/>
      <point x="398" y="661" type="curve" smooth="yes"/>
      <point x="450" y="661"/>
      <point x="468" y="637"/>
      <point x="468" y="587" type="curve" smooth="yes"/>
      <point x="468" y="550"/>
      <point x="455" y="521"/>
      <point x="384" y="521" type="curve" smooth="yes"/>
      <point x="331" y="521" type="line"/>
      <point x="331" y="521"/>
      <point x="331" y="505"/>
      <point x="331" y="505" type="curve"/>
      <point x="391" y="508" type="line" smooth="yes"/>
      <point x="505" y="514"/>
      <point x="530" y="557"/>
      <point x="530" y="597" type="curve" smooth="yes"/>
      <point x="530" y="647"/>
      <point x="490" y="676"/>
      <point x="414" y="676" type="curve" smooth="yes"/>
    </contour>
  </outline>
</glyph>
<glyph name="tbar" format="1">
  <advance width="336"/>
  <unicode hex="0167"/>
  <outline>
    <contour>
      <point x="44" y="421" type="line"/>
      <point x="39" y="401" type="line"/>
      <point x="350" y="401" type="line"/>
      <point x="353" y="421" type="line"/>
    </contour>
    <component base="t"/>
  </outline>
</glyph>
<glyph name="florin" format="1">
  <advance width="466"/>
  <unicode hex="0192"/>
  <outline>
    <contour>
      <point x="98" y="514" type="line"/>
      <point x="93" y="494" type="line"/>
      <point x="470" y="494" type="line"/>
      <point x="475" y="514" type="line"/>
    </contour>
    <contour>
      <point x="-8" y="-188"/>
      <point x="40" y="-168"/>
      <point x="83" y="-127" type="curve" smooth="yes"/>
      <point x="143" y="-70"/>
      <point x="176" y="23"/>
      <point x="201" y="115" type="curve" smooth="yes"/>
      <point x="308" y="515" type="line" smooth="yes"/>
      <point x="344" y="648"/>
      <point x="358" y="700"/>
      <point x="384" y="730" type="curve" smooth="yes"/>
      <point x="401" y="752"/>
      <point x="427" y="767"/>
      <point x="458" y="767" type="curve" smooth="yes"/>
      <point x="486" y="767"/>
      <point x="504" y="755"/>
      <point x="505" y="743" type="curve"/>
      <point x="474" y="734"/>
      <point x="455" y="715"/>
      <point x="448" y="692" type="curve" smooth="yes"/>
      <point x="440" y="660"/>
      <point x="457" y="642"/>
      <point x="489" y="642" type="curve" smooth="yes"/>
      <point x="521" y="642"/>
      <point x="546" y="665"/>
      <point x="554" y="693" type="curve" smooth="yes"/>
      <point x="566" y="741"/>
      <point x="531" y="782"/>
      <point x="459" y="782" type="curve" smooth="yes"/>
      <point x="410" y="782"/>
      <point x="361" y="763"/>
      <point x="327" y="732" type="curve" smooth="yes"/>
      <point x="277" y="687"/>
      <point x="253" y="633"/>
      <point x="221" y="515" type="curve" smooth="yes"/>
      <point x="66" y="-65" type="line" smooth="yes"/>
      <point x="46" y="-140"/>
      <point x="16" y="-167"/>
      <point x="-37" y="-173" type="curve"/>
      <point x="-21" y="-159"/>
      <point x="-13" y="-143"/>
      <point x="-11" y="-133" type="curve" smooth="yes"/>
      <point x="-4" y="-108"/>
      <point x="-17" y="-88"/>
      <point x="-44" y="-88" type="curve" smooth="yes"/>
      <point x="-73" y="-88"/>
      <point x="-96" y="-108"/>
      <point x="-103" y="-135" type="curve" smooth="yes"/>
      <point x="-111" y="-163"/>
      <point x="-96" y="-188"/>
      <point x="-50" y="-188" type="curve" smooth="yes"/>
    </contour>
  </outline>
</glyph>
<glyph name="uni0404" format="1">
  <advance width="673"/>
  <unicode hex="0404"/>
  <outline>
    <contour>
      <point x="510" y="289"/>
      <point x="565" y="327"/>
      <point x="617" y="392" type="curve"/>
      <point x="604" y="401" type="line"/>
      <point x="574" y="364"/>
      <point x="539" y="347"/>
      <point x="510" y="347" type="curve" smooth="yes"/>
      <point x="425" y="347"/>
      <point x="396" y="429"/>
      <point x="303" y="429" type="curve" smooth="yes"/>
      <point x="249" y="429"/>
      <point x="185" y="390"/>
      <point x="156" y="318" type="curve"/>
      <point x="161" y="313" type="line"/>
      <point x="187" y="356"/>
      <point x="216" y="371"/>
      <point x="244" y="371" type="curve" smooth="yes"/>
      <point x="332" y="371"/>
      <point x="357" y="289"/>
      <point x="453" y="289" type="curve" smooth="yes"/>
    </contour>
    <component base="C"/>
  </outline>
</glyph>
<glyph name="uni0424" format="1">
  <advance width="937"/>
  <unicode hex="0424"/>
  <outline>
    <contour>
      <point x="702" y="554"/>
      <point x="812" y="502"/>
      <point x="812" y="370" type="curve" smooth="yes"/>
      <point x="812" y="193"/>
      <point x="682" y="74"/>
      <point x="421" y="74" type="curve" smooth="yes"/>
      <point x="252" y="74"/>
      <point x="142" y="126"/>
      <point x="142" y="258" type="curve" smooth="yes"/>
      <point x="142" y="435"/>
      <point x="272" y="554"/>
      <point x="533" y="554" type="curve" smooth="yes"/>
    </contour>
    <contour>
      <point x="740" y="56"/>
      <point x="919" y="211"/>
      <point x="919" y="361" type="curve" smooth="yes"/>
      <point x="919" y="494"/>
      <point x="780" y="572"/>
      <point x="537" y="572" type="curve" smooth="yes"/>
      <point x="214" y="572"/>
      <point x="35" y="417"/>
      <point x="35" y="267" type="curve" smooth="yes"/>
      <point x="35" y="134"/>
      <point x="174" y="56"/>
      <point x="417" y="56" type="curve" smooth="yes"/>
    </contour>
    <contour>
      <point x="273" y="653" type="line"/>
      <point x="258" y="665"/>
      <point x="250" y="679"/>
      <point x="250" y="695" type="curve" smooth="yes"/>
      <point x="250" y="718"/>
      <point x="266" y="732"/>
      <point x="293" y="732" type="curve" smooth="yes"/>
      <point x="360" y="732"/>
      <point x="400" y="646"/>
      <point x="522" y="646" type="curve" smooth="yes"/>
      <point x="587" y="646"/>
      <point x="666" y="670"/>
      <point x="738" y="706" type="curve"/>
      <point x="561" y="608"/>
      <point x="491" y="541"/>
      <point x="437" y="339" type="curve" smooth="yes"/>
      <point x="385" y="145" type="line" smooth="yes"/>
      <point x="345" y="-5"/>
      <point x="323" y="-172"/>
      <point x="209" y="-172" type="curve" smooth="yes"/>
      <point x="196" y="-172"/>
      <point x="184" y="-170"/>
      <point x="175" y="-167" type="curve"/>
      <point x="197" y="-157"/>
      <point x="216" y="-138"/>
      <point x="215" y="-114" type="curve" smooth="yes"/>
      <point x="214" y="-92"/>
      <point x="197" y="-74"/>
      <point x="173" y="-74" type="curve" smooth="yes"/>
      <point x="141" y="-74"/>
      <point x="117" y="-104"/>
      <point x="118" y="-133" type="curve" smooth="yes"/>
      <point x="120" y="-172"/>
      <point x="166" y="-188"/>
      <point x="216" y="-188" type="curve" smooth="yes"/>
      <point x="350" y="-188"/>
      <point x="420" y="-71"/>
      <point x="456" y="65" type="curve" smooth="yes"/>
      <point x="541" y="384" type="line" smooth="yes"/>
      <point x="581" y="534"/>
      <point x="634" y="628"/>
      <point x="755" y="709" type="curve"/>
      <point x="826" y="736"/>
      <point x="838" y="759"/>
      <point x="822" y="773" type="curve" smooth="yes"/>
      <point x="802" y="790"/>
      <point x="774" y="763"/>
      <point x="746" y="720" type="curve"/>
      <point x="700" y="703"/>
      <point x="647" y="685"/>
      <point x="602" y="685" type="curve" smooth="yes"/>
      <point x="498" y="685"/>
      <point x="432" y="782"/>
      <point x="323" y="782" type="curve" smooth="yes"/>
      <point x="263" y="782"/>
      <point x="221" y="753"/>
      <point x="221" y="703" type="curve" smooth="yes"/>
      <point x="221" y="673"/>
      <point x="236" y="652"/>
      <point x="259" y="637" type="curve"/>
    </contour>
  </outline>
</glyph>
<glyph name="uni0436" format="1">
  <advance width="958"/>
  <unicode hex="0436"/>
  <outline>
    <contour>
      <point x="273" y="259" type="line"/>
      <point x="663" y="259" type="line"/>
      <point x="663" y="279" type="line"/>
      <point x="273" y="279" type="line"/>
    </contour>
    <contour>
      <point x="83" y="386" type="line"/>
      <point x="123" y="461"/>
      <point x="171" y="486"/>
      <point x="207" y="486" type="curve" smooth="yes"/>
      <point x="243" y="486"/>
      <point x="263" y="458"/>
      <point x="263" y="390" type="curve" smooth="yes"/>
      <point x="263" y="187"/>
      <point x="168" y="6"/>
      <point x="81" y="6" type="curve" smooth="yes"/>
      <point x="52" y="6"/>
      <point x="34" y="18"/>
      <point x="23" y="37" type="curve"/>
      <point x="62" y="44"/>
      <point x="98" y="73"/>
      <point x="98" y="112" type="curve" smooth="yes"/>
      <point x="98" y="133"/>
      <point x="85" y="151"/>
      <point x="57" y="151" type="curve" smooth="yes"/>
      <point x="13" y="151"/>
      <point x="-14" y="109"/>
      <point x="-14" y="71" type="curve" smooth="yes"/>
      <point x="-14" y="18"/>
      <point x="31" y="-14"/>
      <point x="84" y="-14" type="curve" smooth="yes"/>
      <point x="253" y="-14"/>
      <point x="356" y="227"/>
      <point x="356" y="381" type="curve" smooth="yes"/>
      <point x="356" y="479"/>
      <point x="312" y="528"/>
      <point x="236" y="528" type="curve" smooth="yes"/>
      <point x="147" y="528"/>
      <point x="97" y="461"/>
      <point x="63" y="394" type="curve"/>
    </contour>
    <contour>
      <point x="356" y="0" type="line"/>
      <point x="356" y="0"/>
      <point x="443" y="0"/>
      <point x="443" y="0" type="curve"/>
      <point x="581" y="528" type="line"/>
      <point x="556" y="519"/>
      <point x="523" y="515"/>
      <point x="490" y="514" type="curve"/>
    </contour>
    <contour>
      <point x="886" y="508"/>
      <point x="904" y="496"/>
      <point x="915" y="477" type="curve"/>
      <point x="876" y="470"/>
      <point x="840" y="441"/>
      <point x="840" y="402" type="curve" smooth="yes"/>
      <point x="840" y="381"/>
      <point x="853" y="363"/>
      <point x="881" y="363" type="curve" smooth="yes"/>
      <point x="925" y="363"/>
      <point x="952" y="405"/>
      <point x="952" y="443" type="curve" smooth="yes"/>
      <point x="952" y="496"/>
      <point x="907" y="528"/>
      <point x="854" y="528" type="curve" smooth="yes"/>
      <point x="685" y="528"/>
      <point x="582" y="287"/>
      <point x="582" y="133" type="curve" smooth="yes"/>
      <point x="582" y="35"/>
      <point x="626" y="-14"/>
      <point x="702" y="-14" type="curve" smooth="yes"/>
      <point x="791" y="-14"/>
      <point x="841" y="53"/>
      <point x="875" y="120" type="curve"/>
      <point x="855" y="128" type="line"/>
      <point x="815" y="53"/>
      <point x="767" y="28"/>
      <point x="731" y="28" type="curve" smooth="yes"/>
      <point x="695" y="28"/>
      <point x="675" y="56"/>
      <point x="675" y="124" type="curve" smooth="yes"/>
      <point x="675" y="327"/>
      <point x="770" y="508"/>
      <point x="857" y="508" type="curve" smooth="yes"/>
    </contour>
  </outline>
</glyph>
<glyph name="uni0446" format="1">
  <advance width="569"/>
  <unicode hex="0446"/>
  <outline>
    <contour>
      <point x="255" y="-79"/>
      <point x="270" y="-171"/>
      <point x="336" y="-171" type="curve" smooth="yes"/>
      <point x="404" y="-171"/>
      <point x="436" y="-81"/>
      <point x="497" y="102" type="curve"/>
      <point x="485" y="111" type="line"/>
      <point x="433" y="-23"/>
      <point x="418" y="-110"/>
      <point x="360" y="-110" type="curve" smooth="yes"/>
      <point x="302" y="-110"/>
      <point x="269" y="-65"/>
      <point x="203" y="-65" type="curve" smooth="yes"/>
      <point x="158" y="-65"/>
      <point x="124" y="-97"/>
      <point x="124" y="-130" type="curve" smooth="yes"/>
      <point x="124" y="-156"/>
      <point x="139" y="-166"/>
      <point x="157" y="-166" type="curve" smooth="yes"/>
      <point x="183" y="-166"/>
      <point x="211" y="-147"/>
      <point x="211" y="-112" type="curve" smooth="yes"/>
      <point x="211" y="-99"/>
      <point x="206" y="-86"/>
      <point x="203" y="-78" type="curve"/>
    </contour>
    <component base="u"/>
  </outline>
</glyph>
<glyph name="uni044F" format="1">
  <advance width="534"/>
  <unicode hex="044F"/>
  <outline>
    <contour>
      <point x="285" y="127" type="line" smooth="yes"/>
      <point x="253" y="37"/>
      <point x="266" y="-14"/>
      <point x="335" y="-14" type="curve" smooth="yes"/>
      <point x="381" y="-14"/>
      <point x="432" y="9"/>
      <point x="459" y="89" type="curve" smooth="yes"/>
      <point x="484" y="162" type="line"/>
      <point x="465" y="162" type="line"/>
      <point x="452" y="125" type="line" smooth="yes"/>
      <point x="426" y="51"/>
      <point x="403" y="23"/>
      <point x="375" y="23" type="curve" smooth="yes"/>
      <point x="341" y="23"/>
      <point x="348" y="62"/>
      <point x="356" y="85" type="curve" smooth="yes"/>
      <point x="459" y="375" type="line" smooth="yes"/>
      <point x="494" y="476"/>
      <point x="474" y="528"/>
      <point x="344" y="528" type="curve" smooth="yes"/>
      <point x="149" y="528"/>
      <point x="100" y="412"/>
      <point x="100" y="349" type="curve" smooth="yes"/>
      <point x="100" y="288"/>
      <point x="147" y="249"/>
      <point x="235" y="249" type="curve" smooth="yes"/>
      <point x="276" y="249"/>
      <point x="327" y="255"/>
      <point x="365" y="270" type="curve"/>
      <point x="362" y="282" type="line"/>
      <point x="339" y="276"/>
      <point x="294" y="271"/>
      <point x="269" y="271" type="curve" smooth="yes"/>
      <point x="203" y="271"/>
      <point x="180" y="309"/>
      <point x="180" y="359" type="curve" smooth="yes"/>
      <point x="180" y="450"/>
      <point x="253" y="510"/>
      <point x="338" y="510" type="curve" smooth="yes"/>
      <point x="390" y="510"/>
      <point x="412" y="487"/>
      <point x="378" y="391" type="curve" smooth="yes"/>
    </contour>
    <contour>
      <point x="-65" y="58" type="line"/>
      <point x="-48" y="6"/>
      <point x="-19" y="-14"/>
      <point x="23" y="-14" type="curve" smooth="yes"/>
      <point x="74" y="-14"/>
      <point x="111" y="16"/>
      <point x="143" y="102" type="curve" smooth="yes"/>
      <point x="167" y="165" type="line" smooth="yes"/>
      <point x="207" y="244"/>
      <point x="229" y="245"/>
      <point x="337" y="261" type="curve"/>
      <point x="341" y="270" type="line"/>
      <point x="306" y="264"/>
      <point x="268" y="259"/>
      <point x="234" y="256" type="curve" smooth="yes"/>
      <point x="175" y="251"/>
      <point x="120" y="238"/>
      <point x="80" y="155" type="curve" smooth="yes"/>
      <point x="52" y="92" type="line" smooth="yes"/>
      <point x="38" y="62"/>
      <point x="28" y="41"/>
      <point x="-2" y="41" type="curve" smooth="yes"/>
      <point x="-18" y="41"/>
      <point x="-40" y="49"/>
      <point x="-52" y="67" type="curve"/>
    </contour>
  </outline>
</glyph>
<glyph name="uni0459" format="1">
  <advance width="712"/>
  <unicode hex="0459"/>
  <outline>
    <contour>
      <point x="487" y="528" type="line"/>
      <point x="462" y="519"/>
      <point x="429" y="515"/>
      <point x="396" y="514" type="curve"/>
      <point x="311" y="176" type="line" smooth="yes"/>
      <point x="273" y="24"/>
      <point x="341" y="-14"/>
      <point x="434" y="-14" type="curve" smooth="yes"/>
      <point x="567" y="-14"/>
      <point x="648" y="91"/>
      <point x="648" y="182" type="curve" smooth="yes"/>
      <point x="648" y="246"/>
      <point x="608" y="288"/>
      <point x="537" y="288" type="curve" smooth="yes"/>
      <point x="486" y="288"/>
      <point x="425" y="264"/>
      <point x="387" y="203" type="curve"/>
      <point x="393" y="192" type="line"/>
      <point x="417" y="236"/>
      <point x="466" y="259"/>
      <point x="503" y="259" type="curve" smooth="yes"/>
      <point x="551" y="259"/>
      <point x="568" y="224"/>
      <point x="568" y="174" type="curve" smooth="yes"/>
      <point x="568" y="68"/>
      <point x="491" y="4"/>
      <point x="430" y="4" type="curve" smooth="yes"/>
      <point x="383" y="4"/>
      <point x="350" y="41"/>
      <point x="386" y="169" type="curve" smooth="yes"/>
    </contour>
    <contour>
      <point x="0" y="1"/>
      <point x="-1" y="1"/>
      <point x="-1" y="1" type="curve"/>
      <point x="15" y="16"/>
      <point x="27" y="36"/>
      <point x="27" y="55" type="curve" smooth="yes"/>
      <point x="27" y="73"/>
      <point x="16" y="86"/>
      <point x="-6" y="86" type="curve" smooth="yes"/>
      <point x="-39" y="86"/>
      <point x="-65" y="55"/>
      <point x="-65" y="25" type="curve" smooth="yes"/>
      <point x="-65" y="1"/>
      <point x="-49" y="-14"/>
      <point x="-15" y="-14" type="curve" smooth="yes"/>
      <point x="-2" y="-14"/>
      <point x="19" y="-12"/>
      <point x="41" y="0" type="curve" smooth="yes"/>
      <point x="113" y="40"/>
      <point x="145" y="152"/>
      <point x="178" y="272" type="curve" smooth="yes"/>
      <point x="205" y="369"/>
      <point x="234" y="509"/>
      <point x="311" y="509" type="curve" smooth="yes"/>
      <point x="356" y="509"/>
      <point x="375" y="461"/>
      <point x="366" y="391" type="curve"/>
      <point x="377" y="397" type="line"/>
      <point x="391" y="475"/>
      <point x="368" y="528"/>
      <point x="313" y="528" type="curve" smooth="yes"/>
      <point x="240" y="528"/>
      <point x="204" y="445"/>
      <point x="166" y="303" type="curve" smooth="yes"/>
      <point x="141" y="208"/>
      <point x="100" y="21"/>
      <point x="0" y="1" type="curve" smooth="yes"/>
    </contour>
  </outline>
</glyph>
<glyph name="uni0490" format="1">
  <advance width="503"/>
  <unicode hex="0490"/>
  <outline>
    <contour>
      <point x="431" y="708"/>
      <point x="352" y="705"/>
      <point x="303" y="705" type="curve" smooth="yes"/>
      <point x="271" y="705"/>
      <point x="205" y="705"/>
      <point x="153" y="708" type="curve"/>
      <point x="148" y="688" type="line"/>
      <point x="215" y="685"/>
      <point x="225" y="675"/>
      <point x="206" y="602" type="curve" smooth="yes"/>
      <point x="73" y="106" type="line" smooth="yes"/>
      <point x="53" y="33"/>
      <point x="39" y="23"/>
      <point x="-30" y="20" type="curve"/>
      <point x="-35" y="0" type="line"/>
      <point x="-7" y="2"/>
      <point x="40" y="3"/>
      <point x="92" y="3" type="curve" smooth="yes"/>
      <point x="146" y="3"/>
      <point x="204" y="2"/>
      <point x="239" y="0" type="curve"/>
      <point x="244" y="20" type="line"/>
      <point x="161" y="23"/>
      <point x="146" y="33"/>
      <point x="166" y="106" type="curve" smooth="yes"/>
      <point x="299" y="602" type="line" smooth="yes"/>
      <point x="318" y="675"/>
      <point x="334" y="685"/>
      <point x="402" y="685" type="curve" smooth="yes"/>
      <point x="606" y="685" type="line"/>
      <point x="614" y="732"/>
      <point x="625" y="780"/>
      <point x="631" y="803" type="curve" smooth="yes"/>
      <point x="637" y="827"/>
      <point x="644" y="850"/>
      <point x="650" y="865" type="curve"/>
      <point x="627" y="865" type="line"/>
      <point x="586" y="747"/>
      <point x="563" y="708"/>
      <point x="481" y="708" type="curve" smooth="yes"/>
    </contour>
  </outline>
</glyph>
<glyph name="uni0491" format="1">
  <advance width="400"/>
  <unicode hex="0491"/>
  <outline>
    <contour>
      <point x="84" y="0" type="line"/>
      <point x="228" y="528" type="line"/>
      <point x="203" y="519"/>
      <point x="170" y="515"/>
      <point x="137" y="514" type="curve"/>
      <point x="-3" y="0" type="line"/>
    </contour>
    <contour>
      <point x="167" y="494" type="line"/>
      <point x="427" y="494" type="line"/>
      <point x="427" y="514" type="line"/>
      <point x="167" y="514" type="line"/>
    </contour>
    <contour>
      <point x="427" y="494" type="line"/>
      <point x="434" y="537"/>
      <point x="446" y="581"/>
      <point x="452" y="602" type="curve" smooth="yes"/>
      <point x="460" y="630"/>
      <point x="467" y="656"/>
      <point x="474" y="674" type="curve"/>
      <point x="452" y="674" type="line"/>
      <point x="407" y="556"/>
      <point x="368" y="514"/>
      <point x="272" y="514" type="curve"/>
    </contour>
  </outline>
</glyph>
<glyph name="trademark" format="1">
  <advance width="1116"/>
  <unicode hex="2122"/>
  <outline>
    <contour>
      <point x="306" y="685" type="line"/>
      <point x="306" y="386" type="line" smooth="yes"/>
      <point x="306" y="330"/>
      <point x="295" y="323"/>
      <point x="235" y="320" type="curve"/>
      <point x="235" y="300" type="line"/>
      <point x="259" y="302"/>
      <point x="299" y="303"/>
      <point x="343" y="303" type="curve" smooth="yes"/>
      <point x="381" y="303"/>
      <point x="423" y="302"/>
      <point x="450" y="300" type="curve"/>
      <point x="450" y="320" type="line"/>
      <point x="389" y="323"/>
      <point x="379" y="330"/>
      <point x="379" y="386" type="curve" smooth="yes"/>
      <point x="379" y="685" type="line"/>
      <point x="433" y="685" type="line" smooth="yes"/>
      <point x="471" y="685"/>
      <point x="491" y="656"/>
      <point x="497" y="568" type="curve"/>
      <point x="520" y="568" type="line"/>
      <point x="518" y="581"/>
      <point x="517" y="600"/>
      <point x="517" y="620" type="curve" smooth="yes"/>
      <point x="517" y="637"/>
      <point x="519" y="673"/>
      <point x="524" y="708" type="curve"/>
      <point x="471" y="705"/>
      <point x="395" y="705"/>
      <point x="343" y="705" type="curve" smooth="yes"/>
      <point x="291" y="705"/>
      <point x="214" y="705"/>
      <point x="161" y="708" type="curve"/>
      <point x="166" y="673"/>
      <point x="168" y="637"/>
      <point x="168" y="620" type="curve" smooth="yes"/>
      <point x="168" y="600"/>
      <point x="167" y="581"/>
      <point x="165" y="568" type="curve"/>
      <point x="188" y="568" type="line"/>
      <point x="194" y="656"/>
      <point x="214" y="685"/>
      <point x="252" y="685" type="curve" smooth="yes"/>
    </contour>
    <contour>
      <point x="833" y="411" type="line"/>
      <point x="712" y="708" type="line"/>
      <point x="690" y="706"/>
      <point x="673" y="705"/>
      <point x="644" y="705" type="curve" smooth="yes"/>
      <point x="621" y="705"/>
      <point x="596" y="706"/>
      <point x="581" y="708" type="curve"/>
      <point x="581" y="688" type="line"/>
      <point x="625" y="685"/>
      <point x="632" y="680"/>
      <point x="632" y="632" type="curve" smooth="yes"/>
      <point x="632" y="376" type="line" smooth="yes"/>
      <point x="632" y="328"/>
      <point x="625" y="323"/>
      <point x="581" y="320" type="curve"/>
      <point x="581" y="300" type="line"/>
      <point x="596" y="302"/>
      <point x="621" y="303"/>
      <point x="644" y="303" type="curve" smooth="yes"/>
      <point x="663" y="303"/>
      <point x="682" y="302"/>
      <point x="696" y="300" type="curve"/>
      <point x="696" y="320" type="line"/>
      <point x="662" y="323"/>
      <point x="655" y="328"/>
      <point x="655" y="376" type="curve" smooth="yes"/>
      <point x="655" y="644" type="line"/>
      <point x="797" y="295" type="line"/>
      <point x="813" y="295" type="line"/>
      <point x="944" y="642" type="line"/>
      <point x="944" y="376" type="line" smooth="yes"/>
      <point x="944" y="328"/>
      <point x="937" y="323"/>
      <point x="903" y="320" type="curve"/>
      <point x="903" y="300" type="line"/>
      <point x="921" y="302"/>
      <point x="949" y="303"/>
      <point x="981" y="303" type="curve" smooth="yes"/>
      <point x="1011" y="303"/>
      <point x="1046" y="302"/>
      <point x="1068" y="300" type="curve"/>
      <point x="1068" y="320" type="line"/>
      <point x="1024" y="323"/>
      <point x="1017" y="328"/>
      <point x="1017" y="376" type="curve" smooth="yes"/>
      <point x="1017" y="632" type="line" smooth="yes"/>
      <point x="1017" y="680"/>
      <point x="1025" y="685"/>
      <point x="1068" y="688" type="curve"/>
      <point x="1068" y="708" type="line"/>
      <point x="1049" y="706"/>
      <point x="1018" y="705"/>
      <point x="991" y="705" type="curve" smooth="yes"/>
      <point x="974" y="705"/>
      <point x="959" y="705"/>
      <point x="944" y="705" type="curve"/>
    </contour>
  </outline>
</glyph>
<glyph name="arrowup" format="1">
  <advance width="494"/>
  <unicode hex="2191"/>
  <outline>
    <contour>
      <point x="219" y="491"/>
      <point x="161" y="425"/>
      <point x="60" y="379" type="curve"/>
      <point x="60" y="362" type="line"/>
      <point x="122" y="391"/>
      <point x="183" y="405"/>
      <point x="247" y="405" type="curve" smooth="yes"/>
      <point x="311" y="405"/>
      <point x="372" y="391"/>
      <point x="434" y="362" type="curve"/>
      <point x="434" y="379" type="line"/>
      <point x="333" y="425"/>
      <point x="275" y="491"/>
      <point x="247" y="586" type="curve"/>
    </contour>
    <contour>
      <point x="219" y="119"/>
      <point x="161" y="53"/>
      <point x="60" y="7" type="curve"/>
      <point x="60" y="-10" type="line"/>
      <point x="161" y="37"/>
      <point x="217" y="91"/>
      <point x="247" y="171" type="curve"/>
      <point x="277" y="91"/>
      <point x="333" y="37"/>
      <point x="434" y="-10" type="curve"/>
      <point x="434" y="7" type="line"/>
      <point x="333" y="53"/>
      <point x="275" y="119"/>
      <point x="247" y="214" type="curve"/>
    </contour>
    <contour>
      <point x="219" y="209"/>
      <point x="161" y="143"/>
      <point x="60" y="97" type="curve"/>
      <point x="60" y="80" type="line"/>
      <point x="161" y="127"/>
      <point x="217" y="181"/>
      <point x="247" y="261" type="curve"/>
      <point x="277" y="181"/>
      <point x="333" y="127"/>
      <point x="434" y="80" type="curve"/>
      <point x="434" y="97" type="line"/>
      <point x="333" y="143"/>
      <point x="275" y="209"/>
      <point x="247" y="304" type="curve"/>
    </contour>
    <contour>
      <point x="239" y="415" type="line"/>
      <point x="239" y="267" type="line"/>
      <point x="255" y="267" type="line"/>
      <point x="255" y="415" type="line"/>
    </contour>
  </outline>
</glyph>
<glyph name="product" format="1">
  <advance width="954"/>
  <unicode hex="220F"/>
  <outline>
    <contour>
      <point x="777" y="706"/>
      <point x="729" y="705"/>
      <point x="677" y="705" type="curve" smooth="yes"/>
      <point x="631" y="705"/>
      <point x="581" y="708"/>
      <point x="472" y="708" type="curve" smooth="yes"/>
      <point x="356" y="708"/>
      <point x="306" y="705"/>
      <point x="260" y="705" type="curve" smooth="yes"/>
      <point x="208" y="705"/>
      <point x="160" y="706"/>
      <point x="132" y="708" type="curve"/>
      <point x="132" y="688" type="line"/>
      <point x="200" y="685"/>
      <point x="213" y="675"/>
      <point x="213" y="602" type="curve" smooth="yes"/>
      <point x="213" y="-75" type="line" smooth="yes"/>
      <point x="213" y="-148"/>
      <point x="200" y="-158"/>
      <point x="132" y="-161" type="curve"/>
      <point x="132" y="-181" type="line"/>
      <point x="160" y="-179"/>
      <point x="208" y="-178"/>
      <point x="260" y="-178" type="curve" smooth="yes"/>
      <point x="306" y="-178"/>
      <point x="356" y="-179"/>
      <point x="387" y="-181" type="curve"/>
      <point x="387" y="-161" type="line"/>
      <point x="319" y="-158"/>
      <point x="306" y="-148"/>
      <point x="306" y="-75" type="curve" smooth="yes"/>
      <point x="306" y="602" type="line" smooth="yes"/>
      <point x="306" y="675"/>
      <point x="319" y="688"/>
      <point x="387" y="688" type="curve" smooth="yes"/>
      <point x="550" y="688" type="line" smooth="yes"/>
      <point x="618" y="688"/>
      <point x="631" y="675"/>
      <point x="631" y="602" type="curve" smooth="yes"/>
      <point x="631" y="-75" type="line" smooth="yes"/>
      <point x="631" y="-148"/>
      <point x="618" y="-158"/>
      <point x="550" y="-161" type="curve"/>
      <point x="550" y="-181" type="line"/>
      <point x="581" y="-179"/>
      <point x="631" y="-178"/>
      <point x="677" y="-178" type="curve" smooth="yes"/>
      <point x="729" y="-178"/>
      <point x="777" y="-179"/>
      <point x="805" y="-181" type="curve"/>
      <point x="805" y="-161" type="line"/>
      <point x="737" y="-158"/>
      <point x="724" y="-148"/>
      <point x="724" y="-75" type="curve" smooth="yes"/>
      <point x="724" y="602" type="line" smooth="yes"/>
      <point x="724" y="675"/>
      <point x="737" y="685"/>
      <point x="805" y="688" type="curve"/>
      <point x="805" y="708" type="line"/>
    </contour>
  </outline>
</glyph>
<glyph name="radical" format="1">
  <advance width="627"/>
  <unicode hex="221A"/>
  <outline>
    <contour>
      <point x="711" y="769"/>
      <point x="678" y="768"/>
      <point x="634" y="768" type="curve" smooth="yes"/>
      <point x="610" y="768"/>
      <point x="577" y="769"/>
      <point x="549" y="772" type="curve"/>
      <point x="549" y="751" type="line"/>
      <point x="566" y="751"/>
      <point x="566" y="740"/>
      <point x="558" y="712" type="curve" smooth="yes"/>
      <point x="381" y="127" type="line"/>
      <point x="285" y="365" type="line" smooth="yes"/>
      <point x="275" y="391"/>
      <point x="278" y="403"/>
      <point x="291" y="403" type="curve"/>
      <point x="291" y="424" type="line"/>
      <point x="245" y="421"/>
      <point x="188" y="418"/>
      <point x="141" y="418" type="curve" smooth="yes"/>
      <point x="107" y="418"/>
      <point x="79" y="420"/>
      <point x="53" y="424" type="curve"/>
      <point x="53" y="403" type="line"/>
      <point x="147" y="398"/>
      <point x="183" y="390"/>
      <point x="207" y="332" type="curve" smooth="yes"/>
      <point x="347" y="-5" type="line"/>
      <point x="352" y="-5"/>
      <point x="358" y="-5"/>
      <point x="363" y="-5" type="curve"/>
      <point x="574" y="695" type="line"/>
      <point x="586" y="732"/>
      <point x="598" y="739"/>
      <point x="622" y="743" type="curve" smooth="yes"/>
      <point x="645" y="747"/>
      <point x="700" y="749"/>
      <point x="741" y="751" type="curve"/>
      <point x="741" y="772" type="line"/>
    </contour>
  </outline>
</glyph>
<glyph name="lozenge" format="1">
  <advance width="505"/>
  <unicode hex="25CA"/>
  <outline>
    <contour>
      <point x="237" y="713" type="line"/>
      <point x="27" y="246" type="line"/>
      <point x="237" y="-179" type="line"/>
      <point x="253" y="-179" type="line"/>
      <point x="463" y="288" type="line"/>
      <point x="253" y="713" type="line"/>
    </contour>
    <contour>
      <point x="403" y="205" type="line"/>
      <point x="282" y="-66" type="line"/>
      <point x="86" y="329" type="line"/>
      <point x="208" y="600" type="line"/>
    </contour>
  </outline>
</glyph>
<glyph name="acutecomb.loclPLK.case" format="1">
  <advance width="151"/>
  <outline>
    <contour>
      <point x="157" y="759" type="line"/>
      <point x="217" y="821"/>
      <point x="259" y="840"/>
      <point x="278" y="867" type="curve" smooth="yes"/>
      <point x="295" y="892"/>
      <point x="295" y="919"/>
      <point x="274" y="932" type="curve" smooth="yes"/>
      <point x="252" y="947"/>
      <point x="226" y="941"/>
      <point x="207" y="917" type="curve" smooth="yes"/>
      <point x="186" y="887"/>
      <point x="184" y="844"/>
      <point x="147" y="766" type="curve"/>
    </contour>
    <contour>
      <point x="228" y="928" type="move" name="top"/>
    </contour>
    <contour>
      <point x="173" y="708" type="move" name="_top"/>
    </contour>
  </outline>
</glyph>
<glyph name="asciicircum.case" format="1">
  <advance width="442"/>
  <outline>
    <contour>
      <point x="319" y="593"/>
      <point x="389" y="546"/>
      <point x="461" y="517" type="curve"/>
      <point x="473" y="531" type="line"/>
      <point x="397" y="573"/>
      <point x="348" y="648"/>
      <point x="337" y="723" type="curve"/>
      <point x="319" y="723" type="line"/>
      <point x="268" y="648"/>
      <point x="179" y="573"/>
      <point x="81" y="531" type="curve"/>
      <point x="85" y="517" type="line"/>
      <point x="157" y="546"/>
      <point x="235" y="593"/>
      <point x="285" y="637" type="curve"/>
    </contour>
  </outline>
</glyph>
<glyph name="braceleft.smcp" format="1">
  <advance width="304"/>
  <outline>
    <contour>
      <point x="238" y="662"/>
      <point x="200" y="623"/>
      <point x="160" y="487" type="curve" smooth="yes"/>
      <point x="118" y="344"/>
      <point x="115" y="314"/>
      <point x="45" y="314" type="curve" smooth="yes"/>
      <point x="40" y="314" type="line"/>
      <point x="37" y="296" type="line"/>
      <point x="42" y="296" type="line" smooth="yes"/>
      <point x="66" y="294"/>
      <point x="82" y="272"/>
      <point x="83" y="217" type="curve" smooth="yes"/>
      <point x="83" y="166"/>
      <point x="45" y="76"/>
      <point x="45" y="26" type="curve" smooth="yes"/>
      <point x="45" y="-27"/>
      <point x="88" y="-58"/>
      <point x="177" y="-58" type="curve"/>
      <point x="182" y="-39" type="line"/>
      <point x="144" y="-38"/>
      <point x="125" y="-30"/>
      <point x="125" y="11" type="curve" smooth="yes"/>
      <point x="125" y="68"/>
      <point x="157" y="125"/>
      <point x="157" y="181" type="curve" smooth="yes"/>
      <point x="157" y="263"/>
      <point x="113" y="290"/>
      <point x="67" y="305" type="curve"/>
      <point x="139" y="307"/>
      <point x="207" y="355"/>
      <point x="243" y="487" type="curve" smooth="yes"/>
      <point x="282" y="629"/>
      <point x="290" y="642"/>
      <point x="335" y="643" type="curve"/>
      <point x="340" y="662" type="line"/>
    </contour>
  </outline>
</glyph>
<glyph name="breve-cy" format="1">
  <advance width="436"/>
  <outline>
    <contour>
      <point x="248" y="692"/>
      <point x="267" y="713"/>
      <point x="267" y="742" type="curve" smooth="yes"/>
      <point x="267" y="770"/>
      <point x="250" y="784"/>
      <point x="224" y="784" type="curve" smooth="yes"/>
      <point x="188" y="784"/>
      <point x="157" y="757"/>
      <point x="157" y="719" type="curve" smooth="yes"/>
      <point x="157" y="658"/>
      <point x="234" y="643"/>
      <point x="287" y="643" type="curve" smooth="yes"/>
      <point x="366" y="643"/>
      <point x="458" y="676"/>
      <point x="521" y="761" type="curve"/>
      <point x="506" y="772" type="line"/>
      <point x="458" y="702"/>
      <point x="366" y="665"/>
      <point x="292" y="665" type="curve" smooth="yes"/>
      <point x="259" y="665"/>
      <point x="230" y="674"/>
      <point x="220" y="683" type="curve"/>
    </contour>
    <contour>
      <point x="260" y="514" type="move" name="_top"/>
    </contour>
  </outline>
</glyph>
<glyph name="eight.sups" format="1">
  <advance width="348"/>
  <outline>
    <contour>
      <point x="264" y="870"/>
      <point x="184" y="822"/>
      <point x="184" y="753" type="curve" smooth="yes"/>
      <point x="184" y="657"/>
      <point x="324" y="637"/>
      <point x="324" y="545" type="curve" smooth="yes"/>
      <point x="324" y="492"/>
      <point x="271" y="449"/>
      <point x="208" y="449" type="curve" smooth="yes"/>
      <point x="163" y="449"/>
      <point x="148" y="471"/>
      <point x="148" y="504" type="curve" smooth="yes"/>
      <point x="148" y="562"/>
      <point x="196" y="619"/>
      <point x="255" y="648" type="curve"/>
      <point x="253" y="665" type="line"/>
      <point x="171" y="632"/>
      <point x="91" y="580"/>
      <point x="91" y="508" type="curve" smooth="yes"/>
      <point x="91" y="451"/>
      <point x="142" y="429"/>
      <point x="199" y="429" type="curve" smooth="yes"/>
      <point x="297" y="429"/>
      <point x="384" y="489"/>
      <point x="384" y="563" type="curve" smooth="yes"/>
      <point x="384" y="660"/>
      <point x="240" y="684"/>
      <point x="240" y="772" type="curve" smooth="yes"/>
      <point x="240" y="814"/>
      <point x="279" y="849"/>
      <point x="332" y="849" type="curve" smooth="yes"/>
      <point x="366" y="849"/>
      <point x="381" y="835"/>
      <point x="381" y="807" type="curve" smooth="yes"/>
      <point x="381" y="758"/>
      <point x="337" y="709"/>
      <point x="294" y="684" type="curve"/>
      <point x="297" y="667" type="line"/>
      <point x="348" y="693"/>
      <point x="433" y="738"/>
      <point x="433" y="805" type="curve" smooth="yes"/>
      <point x="433" y="850"/>
      <point x="394" y="870"/>
      <point x="343" y="870" type="curve" smooth="yes"/>
    </contour>
  </outline>
</glyph>
<glyph name="five.lf" format="1">
  <advance width="507"/>
  <outline>
    <contour>
      <point x="520" y="693"/>
      <point x="483" y="682"/>
      <point x="442" y="682" type="curve" smooth="yes"/>
      <point x="345" y="682"/>
      <point x="295" y="710"/>
      <point x="219" y="707" type="curve"/>
      <point x="84" y="318" type="line"/>
      <point x="102" y="318" type="line"/>
      <point x="181" y="405"/>
      <point x="235" y="420"/>
      <point x="268" y="420" type="curve" smooth="yes"/>
      <point x="323" y="420"/>
      <point x="347" y="380"/>
      <point x="347" y="317" type="curve" smooth="yes"/>
      <point x="347" y="188"/>
      <point x="276" y="3"/>
      <point x="137" y="3" type="curve" smooth="yes"/>
      <point x="95" y="3"/>
      <point x="54" y="21"/>
      <point x="49" y="41" type="curve"/>
      <point x="83" y="50"/>
      <point x="106" y="76"/>
      <point x="106" y="108" type="curve" smooth="yes"/>
      <point x="106" y="132"/>
      <point x="89" y="146"/>
      <point x="64" y="146" type="curve" smooth="yes"/>
      <point x="28" y="146"/>
      <point x="-5" y="113"/>
      <point x="-5" y="79" type="curve" smooth="yes"/>
      <point x="-5" y="57"/>
      <point x="7" y="37"/>
      <point x="24" y="21" type="curve" smooth="yes"/>
      <point x="42" y="5"/>
      <point x="76" y="-14"/>
      <point x="136" y="-14" type="curve" smooth="yes"/>
      <point x="313" y="-14"/>
      <point x="443" y="143"/>
      <point x="443" y="304" type="curve" smooth="yes"/>
      <point x="443" y="383"/>
      <point x="401" y="440"/>
      <point x="298" y="440" type="curve" smooth="yes"/>
      <point x="231" y="440"/>
      <point x="170" y="412"/>
      <point x="118" y="354" type="curve"/>
      <point x="217" y="645" type="line"/>
      <point x="270" y="650"/>
      <point x="341" y="610"/>
      <point x="400" y="610" type="curve" smooth="yes"/>
      <point x="469" y="610"/>
      <point x="522" y="653"/>
      <point x="557" y="720" type="curve"/>
      <point x="545" y="727" type="line"/>
    </contour>
  </outline>
</glyph>
<glyph name="five.subs" format="1">
  <advance width="308"/>
  <outline>
    <contour>
      <point x="203" y="204"/>
      <point x="187" y="197"/>
      <point x="163" y="197" type="curve" smooth="yes"/>
      <point x="121" y="197"/>
      <point x="88" y="218"/>
      <point x="44" y="212" type="curve"/>
      <point x="-19" y="16" type="line"/>
      <point x="-7" y="5" type="line"/>
      <point x="17" y="16"/>
      <point x="37" y="24"/>
      <point x="72" y="24" type="curve" smooth="yes"/>
      <point x="112" y="24"/>
      <point x="128" y="3"/>
      <point x="128" y="-28" type="curve" smooth="yes"/>
      <point x="128" y="-136"/>
      <point x="-6" y="-206"/>
      <point x="-109" y="-210" type="curve"/>
      <point x="-109" y="-228" type="line"/>
      <point x="7" y="-222"/>
      <point x="190" y="-154"/>
      <point x="190" y="-25" type="curve" smooth="yes"/>
      <point x="190" y="20"/>
      <point x="159" y="48"/>
      <point x="91" y="48" type="curve" smooth="yes"/>
      <point x="55" y="48"/>
      <point x="28" y="39"/>
      <point x="6" y="30" type="curve"/>
      <point x="53" y="175" type="line"/>
      <point x="80" y="178"/>
      <point x="113" y="154"/>
      <point x="144" y="154" type="curve" smooth="yes"/>
      <point x="182" y="154"/>
      <point x="214" y="180"/>
      <point x="234" y="220" type="curve"/>
      <point x="218" y="229" type="line"/>
    </contour>
  </outline>
</glyph>
<glyph name="guilsinglleft.smcp" format="1">
  <advance width="361"/>
  <outline>
    <contour>
      <point x="204" y="357"/>
      <point x="317" y="484"/>
      <point x="362" y="562" type="curve"/>
      <point x="344" y="562" type="line"/>
      <point x="255" y="460"/>
      <point x="162" y="375"/>
      <point x="48" y="309" type="curve"/>
      <point x="48" y="307" type="line"/>
      <point x="120" y="242"/>
      <point x="173" y="152"/>
      <point x="216" y="50" type="curve"/>
      <point x="234" y="50" type="line"/>
      <point x="218" y="128"/>
      <point x="169" y="260"/>
      <point x="123" y="308" type="curve"/>
    </contour>
  </outline>
</glyph>
<glyph name="guilsinglright.smcp" format="1">
  <advance width="358"/>
  <outline>
    <contour>
      <point x="133" y="562" type="line"/>
      <point x="149" y="484"/>
      <point x="198" y="352"/>
      <point x="244" y="304" type="curve"/>
      <point x="163" y="255"/>
      <point x="50" y="128"/>
      <point x="5" y="50" type="curve"/>
      <point x="23" y="50" type="line"/>
      <point x="112" y="152"/>
      <point x="205" y="237"/>
      <point x="319" y="303" type="curve"/>
      <point x="319" y="304" type="line"/>
      <point x="247" y="369"/>
      <point x="194" y="460"/>
      <point x="151" y="562" type="curve"/>
    </contour>
  </outline>
</glyph>
<glyph name="i.smcp" format="1">
  <advance width="344"/>
  <outline>
    <contour>
      <point x="273" y="502" type="line" smooth="yes"/>
      <point x="292" y="575"/>
      <point x="307" y="585"/>
      <point x="376" y="588" type="curve"/>
      <point x="381" y="608" type="line"/>
      <point x="349" y="606"/>
      <point x="299" y="605"/>
      <point x="253" y="605" type="curve" smooth="yes"/>
      <point x="201" y="605"/>
      <point x="153" y="606"/>
      <point x="126" y="608" type="curve"/>
      <point x="121" y="588" type="line"/>
      <point x="188" y="585"/>
      <point x="199" y="575"/>
      <point x="180" y="502" type="curve" smooth="yes"/>
      <point x="75" y="106" type="line" smooth="yes"/>
      <point x="56" y="33"/>
      <point x="40" y="23"/>
      <point x="-26" y="20" type="curve"/>
      <point x="-31" y="0" type="line"/>
      <point x="-2" y="2"/>
      <point x="44" y="3"/>
      <point x="96" y="3" type="curve" smooth="yes"/>
      <point x="142" y="3"/>
      <point x="192" y="2"/>
      <point x="223" y="0" type="curve"/>
      <point x="227" y="20" type="line"/>
      <point x="159" y="23"/>
      <point x="149" y="33"/>
      <point x="168" y="106" type="curve" smooth="yes"/>
    </contour>
    <contour>
      <point x="213" y="0" type="move" name="ogonek"/>
    </contour>
    <contour>
      <point x="95" y="0" type="move" name="bottom"/>
    </contour>
    <contour>
      <point x="266" y="608" type="move" name="top"/>
    </contour>
  </outline>
</glyph>
<glyph name="nine.sups" format="1">
  <advance width="339"/>
  <outline>
    <contour>
      <point x="195" y="754"/>
      <point x="109" y="668"/>
      <point x="109" y="573" type="curve" smooth="yes"/>
      <point x="109" y="515"/>
      <point x="146" y="483"/>
      <point x="194" y="483" type="curve" smooth="yes"/>
      <point x="235" y="483"/>
      <point x="300" y="507"/>
      <point x="330" y="570" type="curve"/>
      <point x="324" y="583" type="line"/>
      <point x="293" y="525"/>
      <point x="243" y="511"/>
      <point x="215" y="511" type="curve" smooth="yes"/>
      <point x="189" y="511"/>
      <point x="170" y="525"/>
      <point x="170" y="563" type="curve" smooth="yes"/>
      <point x="170" y="626"/>
      <point x="212" y="732"/>
      <point x="289" y="732" type="curve" smooth="yes"/>
      <point x="312" y="732"/>
      <point x="333" y="718"/>
      <point x="333" y="670" type="curve" smooth="yes"/>
      <point x="333" y="500"/>
      <point x="207" y="379"/>
      <point x="77" y="343" type="curve"/>
      <point x="82" y="325" type="line"/>
      <point x="199" y="356"/>
      <point x="393" y="479"/>
      <point x="393" y="652" type="curve" smooth="yes"/>
      <point x="393" y="718"/>
      <point x="359" y="754"/>
      <point x="298" y="754" type="curve" smooth="yes"/>
    </contour>
  </outline>
</glyph>
<glyph name="one.subs" format="1">
  <advance width="253"/>
  <outline>
    <contour>
      <point x="151" y="217" type="line"/>
      <point x="110" y="184"/>
      <point x="66" y="146"/>
      <point x="-30" y="117" type="curve"/>
      <point x="-35" y="98" type="line"/>
      <point x="24" y="114"/>
      <point x="57" y="132"/>
      <point x="91" y="152" type="curve"/>
      <point x="0" y="-139" type="line"/>
      <point x="59" y="-139" type="line"/>
      <point x="170" y="217" type="line"/>
    </contour>
  </outline>
</glyph>
<glyph name="parenleft.smcp" format="1">
  <advance width="335"/>
  <outline>
    <contour>
      <point x="382" y="640" type="line"/>
      <point x="190" y="537"/>
      <point x="39" y="378"/>
      <point x="39" y="223" type="curve" smooth="yes"/>
      <point x="39" y="108"/>
      <point x="109" y="38"/>
      <point x="211" y="-32" type="curve"/>
      <point x="224" y="-17" type="line"/>
      <point x="148" y="45"/>
      <point x="116" y="128"/>
      <point x="116" y="212" type="curve" smooth="yes"/>
      <point x="116" y="396"/>
      <point x="226" y="524"/>
      <point x="392" y="627" type="curve"/>
    </contour>
  </outline>
</glyph>
<glyph name="questiondown.smcp" format="1">
  <advance width="441"/>
  <outline>
    <contour>
      <point x="105" y="3"/>
      <point x="78" y="29"/>
      <point x="78" y="61" type="curve" smooth="yes"/>
      <point x="78" y="98"/>
      <point x="112" y="120"/>
      <point x="193" y="167" type="curve" smooth="yes"/>
      <point x="293" y="225"/>
      <point x="369" y="266"/>
      <point x="369" y="334" type="curve" smooth="yes"/>
      <point x="369" y="397"/>
      <point x="322" y="430"/>
      <point x="254" y="430" type="curve" smooth="yes"/>
      <point x="177" y="430"/>
      <point x="76" y="391"/>
      <point x="76" y="328" type="curve" smooth="yes"/>
      <point x="76" y="301"/>
      <point x="92" y="293"/>
      <point x="110" y="293" type="curve" smooth="yes"/>
      <point x="137" y="293"/>
      <point x="155" y="314"/>
      <point x="155" y="334" type="curve" smooth="yes"/>
      <point x="155" y="352"/>
      <point x="141" y="368"/>
      <point x="129" y="369" type="curve"/>
      <point x="146" y="397"/>
      <point x="194" y="413"/>
      <point x="234" y="413" type="curve" smooth="yes"/>
      <point x="275" y="413"/>
      <point x="302" y="388"/>
      <point x="302" y="352" type="curve" smooth="yes"/>
      <point x="302" y="298"/>
      <point x="252" y="278"/>
      <point x="155" y="222" type="curve" smooth="yes"/>
      <point x="40" y="156"/>
      <point x="0" y="126"/>
      <point x="0" y="74" type="curve" smooth="yes"/>
      <point x="0" y="17"/>
      <point x="56" y="-14"/>
      <point x="136" y="-14" type="curve" smooth="yes"/>
      <point x="241" y="-14"/>
      <point x="346" y="32"/>
      <point x="346" y="99" type="curve" smooth="yes"/>
      <point x="346" y="124"/>
      <point x="333" y="141"/>
      <point x="306" y="141" type="curve" smooth="yes"/>
      <point x="278" y="141"/>
      <point x="255" y="123"/>
      <point x="253" y="96" type="curve" smooth="yes"/>
      <point x="251" y="73"/>
      <point x="266" y="55"/>
      <point x="278" y="52" type="curve"/>
      <point x="265" y="18"/>
      <point x="200" y="3"/>
      <point x="155" y="3" type="curve" smooth="yes"/>
    </contour>
    <component base="period" xOffset="221" yOffset="508"/>
  </outline>
</glyph>
<glyph name="s_p" format="1">
  <advance width="914"/>
  <outline>
    <contour>
      <point x="332" y="494" type="line"/>
      <point x="347" y="514"/>
      <point x="352" y="538"/>
      <point x="352" y="566" type="curve" smooth="yes"/>
      <point x="352" y="602"/>
      <point x="340" y="629"/>
      <point x="340" y="662" type="curve" smooth="yes"/>
      <point x="340" y="733"/>
      <point x="420" y="765"/>
      <point x="507" y="765" type="curve" smooth="yes"/>
      <point x="565" y="765"/>
      <point x="591" y="735"/>
      <point x="591" y="683" type="curve" smooth="yes"/>
      <point x="591" y="668"/>
      <point x="588" y="650"/>
      <point x="583" y="631" type="curve"/>
      <point x="601" y="634" type="line"/>
      <point x="607" y="656"/>
      <point x="610" y="675"/>
      <point x="610" y="692" type="curve" smooth="yes"/>
      <point x="610" y="756"/>
      <point x="568" y="782"/>
      <point x="510" y="782" type="curve" smooth="yes"/>
      <point x="407" y="782"/>
      <point x="318" y="739"/>
      <point x="318" y="660" type="curve" smooth="yes"/>
      <point x="318" y="624"/>
      <point x="333" y="595"/>
      <point x="333" y="561" type="curve" smooth="yes"/>
      <point x="333" y="541"/>
      <point x="330" y="525"/>
      <point x="316" y="503" type="curve"/>
    </contour>
    <contour>
      <point x="772" y="496"/>
      <point x="790" y="468"/>
      <point x="790" y="409" type="curve" smooth="yes"/>
      <point x="790" y="259"/>
      <point x="695" y="9"/>
      <point x="582" y="9" type="curve" smooth="yes"/>
      <point x="548" y="9"/>
      <point x="524" y="26"/>
      <point x="506" y="76" type="curve"/>
      <point x="498" y="56" type="line"/>
      <point x="509" y="11"/>
      <point x="543" y="-14"/>
      <point x="583" y="-14" type="curve" smooth="yes"/>
      <point x="770" y="-14"/>
      <point x="876" y="236"/>
      <point x="876" y="387" type="curve" smooth="yes"/>
      <point x="876" y="482"/>
      <point x="835" y="528"/>
      <point x="772" y="528" type="curve" smooth="yes"/>
      <point x="684" y="528"/>
      <point x="610" y="427"/>
      <point x="524" y="166" type="curve"/>
      <point x="506" y="58" type="line"/>
      <point x="560" y="281"/>
      <point x="674" y="496"/>
      <point x="743" y="496" type="curve" smooth="yes"/>
    </contour>
    <contour>
      <point x="378" y="-98" type="line" smooth="yes"/>
      <point x="365" y="-145"/>
      <point x="348" y="-160"/>
      <point x="300" y="-160" type="curve"/>
      <point x="294" y="-181" type="line"/>
      <point x="315" y="-180"/>
      <point x="363" y="-177"/>
      <point x="405" y="-177" type="curve" smooth="yes"/>
      <point x="459" y="-177"/>
      <point x="512" y="-180"/>
      <point x="539" y="-181" type="curve"/>
      <point x="545" y="-160" type="line"/>
      <point x="485" y="-160"/>
      <point x="448" y="-144"/>
      <point x="464" y="-88" type="curve" smooth="yes"/>
      <point x="684" y="681" type="line"/>
      <point x="657" y="672"/>
      <point x="625" y="668"/>
      <point x="593" y="667" type="curve"/>
    </contour>
    <component base="s"/>
    <contour>
      <point x="457" y="514" type="move" name="top"/>
    </contour>
    <contour>
      <point x="457" y="0" type="move" name="bottom"/>
    </contour>
  </outline>
</glyph>
<glyph name="section.smcp" format="1">
  <advance width="538"/>
  <outline>
    <contour>
      <point x="418" y="697"/>
      <point x="465" y="684"/>
      <point x="478" y="671" type="curve"/>
      <point x="446" y="662"/>
      <point x="426" y="636"/>
      <point x="426" y="610" type="curve" smooth="yes"/>
      <point x="426" y="586"/>
      <point x="443" y="573"/>
      <point x="467" y="573" type="curve" smooth="yes"/>
      <point x="506" y="573"/>
      <point x="535" y="607"/>
      <point x="535" y="640" type="curve" smooth="yes"/>
      <point x="535" y="668"/>
      <point x="514" y="684"/>
      <point x="492" y="694" type="curve" smooth="yes"/>
      <point x="451" y="713"/>
      <point x="395" y="714"/>
      <point x="382" y="714" type="curve" smooth="yes"/>
      <point x="279" y="714"/>
      <point x="156" y="653"/>
      <point x="156" y="551" type="curve" smooth="yes"/>
      <point x="156" y="510"/>
      <point x="176" y="485"/>
      <point x="234" y="433" type="curve" smooth="yes"/>
      <point x="370" y="313" type="line" smooth="yes"/>
      <point x="407" y="280"/>
      <point x="423" y="262"/>
      <point x="423" y="234" type="curve" smooth="yes"/>
      <point x="423" y="186"/>
      <point x="378" y="154"/>
      <point x="338" y="136" type="curve"/>
      <point x="343" y="125" type="line"/>
      <point x="417" y="154"/>
      <point x="488" y="205"/>
      <point x="488" y="278" type="curve" smooth="yes"/>
      <point x="488" y="317"/>
      <point x="467" y="344"/>
      <point x="420" y="386" type="curve" smooth="yes"/>
      <point x="292" y="499" type="line" smooth="yes"/>
      <point x="254" y="533"/>
      <point x="233" y="550"/>
      <point x="233" y="594" type="curve" smooth="yes"/>
      <point x="233" y="650"/>
      <point x="287" y="691"/>
      <point x="371" y="695" type="curve" smooth="yes"/>
    </contour>
    <contour>
      <point x="128" y="-79"/>
      <point x="81" y="-65"/>
      <point x="68" y="-52" type="curve"/>
      <point x="98" y="-44"/>
      <point x="120" y="-18"/>
      <point x="120" y="9" type="curve" smooth="yes"/>
      <point x="120" y="33"/>
      <point x="103" y="46"/>
      <point x="79" y="46" type="curve" smooth="yes"/>
      <point x="41" y="46"/>
      <point x="12" y="13"/>
      <point x="12" y="-21" type="curve" smooth="yes"/>
      <point x="12" y="-48"/>
      <point x="32" y="-65"/>
      <point x="54" y="-75" type="curve" smooth="yes"/>
      <point x="95" y="-94"/>
      <point x="150" y="-95"/>
      <point x="163" y="-95" type="curve" smooth="yes"/>
      <point x="267" y="-95"/>
      <point x="390" y="-34"/>
      <point x="390" y="68" type="curve" smooth="yes"/>
      <point x="390" y="109"/>
      <point x="370" y="134"/>
      <point x="312" y="186" type="curve" smooth="yes"/>
      <point x="176" y="306" type="line" smooth="yes"/>
      <point x="137" y="340"/>
      <point x="123" y="356"/>
      <point x="123" y="384" type="curve" smooth="yes"/>
      <point x="123" y="434"/>
      <point x="170" y="466"/>
      <point x="208" y="483" type="curve"/>
      <point x="203" y="494" type="line"/>
      <point x="132" y="466"/>
      <point x="59" y="417"/>
      <point x="59" y="342" type="curve" smooth="yes"/>
      <point x="59" y="304"/>
      <point x="77" y="277"/>
      <point x="126" y="233" type="curve" smooth="yes"/>
      <point x="254" y="120" type="line" smooth="yes"/>
      <point x="294" y="85"/>
      <point x="309" y="64"/>
      <point x="309" y="31" type="curve" smooth="yes"/>
      <point x="309" y="-38"/>
      <point x="246" y="-72"/>
      <point x="175" y="-76" type="curve" smooth="yes"/>
    </contour>
  </outline>
</glyph>
<glyph name="seven.numr" format="1">
  <advance width="319"/>
  <outline>
    <contour>
      <point x="145" y="749"/>
      <point x="115" y="713"/>
      <point x="115" y="675" type="curve" smooth="yes"/>
      <point x="115" y="636"/>
      <point x="142" y="609"/>
      <point x="186" y="599" type="curve"/>
      <point x="192" y="617" type="line"/>
      <point x="163" y="623"/>
      <point x="141" y="643"/>
      <point x="141" y="670" type="curve" smooth="yes"/>
      <point x="141" y="697"/>
      <point x="166" y="710"/>
      <point x="191" y="710" type="curve" smooth="yes"/>
      <point x="219" y="710"/>
      <point x="246" y="694"/>
      <point x="289" y="694" type="curve" smooth="yes"/>
      <point x="322" y="694"/>
      <point x="373" y="703"/>
      <point x="411" y="726" type="curve"/>
      <point x="402" y="733" type="line"/>
      <point x="330" y="648"/>
      <point x="161" y="494"/>
      <point x="139" y="382" type="curve" smooth="yes"/>
      <point x="135" y="362"/>
      <point x="137" y="348"/>
      <point x="160" y="348" type="curve" smooth="yes"/>
      <point x="201" y="348"/>
      <point x="201" y="398"/>
      <point x="209" y="426" type="curve" smooth="yes"/>
      <point x="244" y="552"/>
      <point x="326" y="621"/>
      <point x="422" y="727" type="curve"/>
      <point x="420" y="745" type="line"/>
      <point x="392" y="735"/>
      <point x="371" y="730"/>
      <point x="342" y="731" type="curve" smooth="yes"/>
      <point x="295" y="733"/>
      <point x="258" y="749"/>
      <point x="211" y="749" type="curve" smooth="yes"/>
    </contour>
  </outline>
</glyph>
<glyph name="seven.subs" format="1">
  <advance width="317"/>
  <outline>
    <contour>
      <point x="0" y="213"/>
      <point x="-30" y="177"/>
      <point x="-30" y="139" type="curve" smooth="yes"/>
      <point x="-30" y="100"/>
      <point x="-3" y="73"/>
      <point x="41" y="63" type="curve"/>
      <point x="47" y="81" type="line"/>
      <point x="18" y="87"/>
      <point x="-4" y="107"/>
      <point x="-4" y="134" type="curve" smooth="yes"/>
      <point x="-4" y="161"/>
      <point x="21" y="174"/>
      <point x="46" y="174" type="curve" smooth="yes"/>
      <point x="74" y="174"/>
      <point x="101" y="158"/>
      <point x="144" y="158" type="curve" smooth="yes"/>
      <point x="177" y="158"/>
      <point x="228" y="167"/>
      <point x="266" y="190" type="curve"/>
      <point x="257" y="197" type="line"/>
      <point x="182" y="104"/>
      <point x="7" y="-70"/>
      <point x="-16" y="-194" type="curve" smooth="yes"/>
      <point x="-20" y="-214"/>
      <point x="-18" y="-228"/>
      <point x="5" y="-228" type="curve" smooth="yes"/>
      <point x="46" y="-228"/>
      <point x="46" y="-178"/>
      <point x="54" y="-150" type="curve" smooth="yes"/>
      <point x="91" y="-8"/>
      <point x="176" y="69"/>
      <point x="277" y="191" type="curve"/>
      <point x="275" y="209" type="line"/>
      <point x="247" y="199"/>
      <point x="226" y="194"/>
      <point x="197" y="195" type="curve" smooth="yes"/>
      <point x="150" y="197"/>
      <point x="113" y="213"/>
      <point x="66" y="213" type="curve" smooth="yes"/>
    </contour>
  </outline>
</glyph>
<glyph name="six.subs" format="1">
  <advance width="359"/>
  <outline>
    <contour>
      <point x="161" y="310"/>
      <point x="-43" y="166"/>
      <point x="-43" y="-29" type="curve" smooth="yes"/>
      <point x="-43" y="-108"/>
      <point x="-10" y="-147"/>
      <point x="61" y="-147" type="curve" smooth="yes"/>
      <point x="169" y="-147"/>
      <point x="261" y="-56"/>
      <point x="261" y="44" type="curve" smooth="yes"/>
      <point x="261" y="109"/>
      <point x="222" y="144"/>
      <point x="166" y="144" type="curve" smooth="yes"/>
      <point x="118" y="144"/>
      <point x="50" y="118"/>
      <point x="19" y="57" type="curve"/>
      <point x="25" y="44" type="line"/>
      <point x="59" y="102"/>
      <point x="113" y="116"/>
      <point x="144" y="116" type="curve" smooth="yes"/>
      <point x="178" y="116"/>
      <point x="200" y="99"/>
      <point x="200" y="53" type="curve" smooth="yes"/>
      <point x="200" y="-13"/>
      <point x="155" y="-125"/>
      <point x="70" y="-125" type="curve" smooth="yes"/>
      <point x="38" y="-125"/>
      <point x="16" y="-109"/>
      <point x="16" y="-42" type="curve" smooth="yes"/>
      <point x="16" y="128"/>
      <point x="159" y="287"/>
      <point x="289" y="316" type="curve"/>
      <point x="284" y="334" type="line"/>
    </contour>
  </outline>
</glyph>
<glyph name="sterling.smcp" format="1">
  <advance width="559"/>
  <outline>
    <contour>
      <point x="66" y="317" type="line"/>
      <point x="60" y="297" type="line"/>
      <point x="385" y="297" type="line"/>
      <point x="391" y="317" type="line"/>
    </contour>
    <contour>
      <point x="93" y="417" type="line"/>
      <point x="87" y="397" type="line"/>
      <point x="412" y="397" type="line"/>
      <point x="418" y="417" type="line"/>
    </contour>
    <contour>
      <point x="443" y="608"/>
      <point x="471" y="598"/>
      <point x="471" y="584" type="curve"/>
      <point x="443" y="576"/>
      <point x="423" y="553"/>
      <point x="423" y="526" type="curve" smooth="yes"/>
      <point x="423" y="505"/>
      <point x="439" y="492"/>
      <point x="459" y="492" type="curve" smooth="yes"/>
      <point x="495" y="492"/>
      <point x="521" y="522"/>
      <point x="521" y="555" type="curve" smooth="yes"/>
      <point x="521" y="590"/>
      <point x="489" y="623"/>
      <point x="417" y="623" type="curve" smooth="yes"/>
      <point x="295" y="623"/>
      <point x="228" y="542"/>
      <point x="195" y="439" type="curve" smooth="yes"/>
      <point x="147" y="258" type="line" smooth="yes"/>
      <point x="121" y="162"/>
      <point x="99" y="114"/>
      <point x="76" y="69" type="curve"/>
      <point x="13" y="50"/>
      <point x="-23" y="15"/>
      <point x="-23" y="-4" type="curve" smooth="yes"/>
      <point x="-23" y="-12"/>
      <point x="-19" y="-14"/>
      <point x="-10" y="-14" type="curve" smooth="yes"/>
      <point x="16" y="-14"/>
      <point x="52" y="13"/>
      <point x="86" y="60" type="curve"/>
      <point x="110" y="74"/>
      <point x="132" y="80"/>
      <point x="153" y="80" type="curve" smooth="yes"/>
      <point x="236" y="80"/>
      <point x="268" y="-14"/>
      <point x="349" y="-14" type="curve" smooth="yes"/>
      <point x="416" y="-14"/>
      <point x="472" y="45"/>
      <point x="472" y="101" type="curve" smooth="yes"/>
      <point x="472" y="161"/>
      <point x="429" y="194"/>
      <point x="381" y="203" type="curve"/>
      <point x="375" y="186" type="line"/>
      <point x="409" y="178"/>
      <point x="430" y="156"/>
      <point x="430" y="117" type="curve" smooth="yes"/>
      <point x="430" y="84"/>
      <point x="398" y="63"/>
      <point x="364" y="63" type="curve" smooth="yes"/>
      <point x="300" y="63"/>
      <point x="259" y="108"/>
      <point x="201" y="108" type="curve" smooth="yes"/>
      <point x="164" y="108"/>
      <point x="128" y="94"/>
      <point x="95" y="76" type="curve"/>
      <point x="172" y="153"/>
      <point x="229" y="215"/>
      <point x="256" y="317" type="curve" smooth="yes"/>
      <point x="295" y="465" type="line" smooth="yes"/>
      <point x="314" y="539"/>
      <point x="337" y="608"/>
      <point x="415" y="608" type="curve" smooth="yes"/>
    </contour>
  </outline>
</glyph>
<glyph name="three.lf" format="1">
  <advance width="543"/>
  <outline>
    <contour>
      <point x="259" y="722"/>
      <point x="120" y="633"/>
      <point x="120" y="528" type="curve" smooth="yes"/>
      <point x="120" y="472"/>
      <point x="161" y="460"/>
      <point x="195" y="460" type="curve" smooth="yes"/>
      <point x="234" y="460"/>
      <point x="283" y="476"/>
      <point x="326" y="518" type="curve"/>
      <point x="314" y="532" type="line"/>
      <point x="277" y="499"/>
      <point x="247" y="481"/>
      <point x="202" y="481" type="curve" smooth="yes"/>
      <point x="160" y="481"/>
      <point x="144" y="497"/>
      <point x="144" y="529" type="curve" smooth="yes"/>
      <point x="144" y="613"/>
      <point x="251" y="690"/>
      <point x="340" y="690" type="curve" smooth="yes"/>
      <point x="399" y="690"/>
      <point x="420" y="657"/>
      <point x="420" y="603" type="curve" smooth="yes"/>
      <point x="420" y="499"/>
      <point x="344" y="422"/>
      <point x="251" y="385" type="curve"/>
      <point x="236" y="386"/>
      <point x="193" y="387"/>
      <point x="193" y="365" type="curve" smooth="yes"/>
      <point x="193" y="354"/>
      <point x="204" y="352"/>
      <point x="211" y="352" type="curve" smooth="yes"/>
      <point x="226" y="352"/>
      <point x="243" y="362"/>
      <point x="259" y="373" type="curve"/>
      <point x="331" y="366"/>
      <point x="377" y="316"/>
      <point x="377" y="223" type="curve" smooth="yes"/>
      <point x="377" y="90"/>
      <point x="282" y="3"/>
      <point x="161" y="3" type="curve" smooth="yes"/>
      <point x="106" y="3"/>
      <point x="65" y="21"/>
      <point x="58" y="41" type="curve"/>
      <point x="93" y="50"/>
      <point x="115" y="78"/>
      <point x="115" y="107" type="curve" smooth="yes"/>
      <point x="115" y="133"/>
      <point x="98" y="146"/>
      <point x="74" y="146" type="curve" smooth="yes"/>
      <point x="36" y="146"/>
      <point x="5" y="113"/>
      <point x="5" y="77" type="curve" smooth="yes"/>
      <point x="5" y="56"/>
      <point x="15" y="37"/>
      <point x="34" y="21" type="curve" smooth="yes"/>
      <point x="53" y="5"/>
      <point x="89" y="-14"/>
      <point x="159" y="-14" type="curve" smooth="yes"/>
      <point x="315" y="-14"/>
      <point x="473" y="80"/>
      <point x="473" y="220" type="curve" smooth="yes"/>
      <point x="473" y="328"/>
      <point x="379" y="372"/>
      <point x="277" y="385" type="curve"/>
      <point x="375" y="406"/>
      <point x="517" y="506"/>
      <point x="517" y="620" type="curve" smooth="yes"/>
      <point x="517" y="689"/>
      <point x="465" y="722"/>
      <point x="387" y="722" type="curve" smooth="yes"/>
    </contour>
  </outline>
</glyph>
<glyph name="two.lf" format="1">
  <advance width="554"/>
  <outline>
    <contour>
      <point x="250" y="722"/>
      <point x="109" y="633"/>
      <point x="109" y="528" type="curve" smooth="yes"/>
      <point x="109" y="472"/>
      <point x="150" y="460"/>
      <point x="184" y="460" type="curve" smooth="yes"/>
      <point x="223" y="460"/>
      <point x="272" y="476"/>
      <point x="315" y="518" type="curve"/>
      <point x="303" y="532" type="line"/>
      <point x="266" y="499"/>
      <point x="236" y="481"/>
      <point x="191" y="481" type="curve" smooth="yes"/>
      <point x="149" y="481"/>
      <point x="133" y="497"/>
      <point x="133" y="529" type="curve" smooth="yes"/>
      <point x="133" y="613"/>
      <point x="245" y="694"/>
      <point x="337" y="694" type="curve" smooth="yes"/>
      <point x="414" y="694"/>
      <point x="432" y="637"/>
      <point x="432" y="577" type="curve" smooth="yes"/>
      <point x="432" y="432"/>
      <point x="327" y="296"/>
      <point x="-5" y="21" type="curve"/>
      <point x="-10" y="0" type="line"/>
      <point x="31" y="17"/>
      <point x="58" y="26"/>
      <point x="110" y="24" type="curve" smooth="yes"/>
      <point x="193" y="21"/>
      <point x="254" y="-6"/>
      <point x="323" y="-6" type="curve" smooth="yes"/>
      <point x="428" y="-6"/>
      <point x="471" y="56"/>
      <point x="471" y="118" type="curve" smooth="yes"/>
      <point x="471" y="174"/>
      <point x="435" y="212"/>
      <point x="374" y="237" type="curve"/>
      <point x="364" y="223" type="line"/>
      <point x="419" y="201"/>
      <point x="445" y="170"/>
      <point x="445" y="128" type="curve" smooth="yes"/>
      <point x="445" y="80"/>
      <point x="412" y="59"/>
      <point x="357" y="59" type="curve" smooth="yes"/>
      <point x="283" y="59"/>
      <point x="192" y="96"/>
      <point x="104" y="87" type="curve"/>
      <point x="255" y="245"/>
      <point x="523" y="397"/>
      <point x="523" y="585" type="curve" smooth="yes"/>
      <point x="523" y="680"/>
      <point x="455" y="722"/>
      <point x="372" y="722" type="curve" smooth="yes"/>
    </contour>
  </outline>
</glyph>
<glyph name="uni0306.smcp" format="1">
  <advance width="440"/>
  <outline>
    <contour>
      <point x="250" y="749"/>
      <point x="206" y="762"/>
      <point x="171" y="803" type="curve"/>
      <point x="155" y="798" type="line"/>
      <point x="169" y="734"/>
      <point x="220" y="682"/>
      <point x="306" y="682" type="curve" smooth="yes"/>
      <point x="390" y="682"/>
      <point x="502" y="744"/>
      <point x="554" y="796" type="curve"/>
      <point x="544" y="807" type="line"/>
      <point x="480" y="769"/>
      <point x="392" y="749"/>
      <point x="323" y="749" type="curve" smooth="yes"/>
    </contour>
    <contour>
      <point x="381" y="828" type="move" name="top"/>
    </contour>
    <contour>
      <point x="326" y="608" type="move" name="_top"/>
    </contour>
  </outline>
</glyph>
<glyph name="uni0446.smcp" format="1">
  <advance width="764"/>
  <outline>
    <contour>
      <point x="576" y="3"/>
      <point x="617" y="-44"/>
      <point x="593" y="-190" type="curve"/>
      <point x="615" y="-190" type="line"/>
      <point x="618" y="-174"/>
      <point x="622" y="-152"/>
      <point x="628" y="-128" type="curve" smooth="yes"/>
      <point x="639" y="-83"/>
      <point x="654" y="-27"/>
      <point x="672" y="20" type="curve"/>
      <point x="641" y="20" type="line" smooth="yes"/>
      <point x="574" y="20"/>
      <point x="563" y="33"/>
      <point x="582" y="106" type="curve" smooth="yes"/>
      <point x="687" y="502" type="line" smooth="yes"/>
      <point x="706" y="575"/>
      <point x="724" y="585"/>
      <point x="790" y="588" type="curve"/>
      <point x="795" y="608" type="line"/>
      <point x="766" y="606"/>
      <point x="718" y="605"/>
      <point x="666" y="605" type="curve" smooth="yes"/>
      <point x="620" y="605"/>
      <point x="570" y="606"/>
      <point x="539" y="608" type="curve"/>
      <point x="535" y="588" type="line"/>
      <point x="603" y="585"/>
      <point x="613" y="575"/>
      <point x="594" y="502" type="curve" smooth="yes"/>
      <point x="489" y="106" type="line" smooth="yes"/>
      <point x="470" y="33"/>
      <point x="455" y="20"/>
      <point x="386" y="20" type="curve" smooth="yes"/>
      <point x="227" y="20" type="line" smooth="yes"/>
      <point x="160" y="20"/>
      <point x="148" y="33"/>
      <point x="168" y="106" type="curve" smooth="yes"/>
      <point x="273" y="502" type="line" smooth="yes"/>
      <point x="292" y="575"/>
      <point x="308" y="585"/>
      <point x="376" y="588" type="curve"/>
      <point x="380" y="608" type="line"/>
      <point x="349" y="606"/>
      <point x="299" y="605"/>
      <point x="253" y="605" type="curve" smooth="yes"/>
      <point x="201" y="605"/>
      <point x="153" y="606"/>
      <point x="125" y="608" type="curve"/>
      <point x="121" y="588" type="line"/>
      <point x="189" y="585"/>
      <point x="199" y="575"/>
      <point x="180" y="502" type="curve" smooth="yes"/>
      <point x="75" y="106" type="line" smooth="yes"/>
      <point x="56" y="33"/>
      <point x="43" y="23"/>
      <point x="-26" y="20" type="curve"/>
      <point x="-31" y="0" type="line"/>
      <point x="-2" y="2"/>
      <point x="44" y="3"/>
      <point x="96" y="3" type="curve" smooth="yes"/>
      <point x="142" y="3"/>
      <point x="192" y="0"/>
      <point x="222" y="0" type="curve"/>
      <point x="275" y="0"/>
      <point x="328" y="0"/>
      <point x="381" y="0" type="curve"/>
      <point x="413" y="0"/>
      <point x="463" y="3"/>
      <point x="509" y="3" type="curve" smooth="yes"/>
    </contour>
  </outline>
</glyph>
<glyph name="uni044D.smcp" format="1">
  <advance width="668"/>
  <outline>
    <contour>
      <point x="162" y="369"/>
      <point x="123" y="332"/>
      <point x="79" y="282" type="curve"/>
      <point x="89" y="270" type="line"/>
      <point x="117" y="296"/>
      <point x="153" y="311"/>
      <point x="184" y="311" type="curve" smooth="yes"/>
      <point x="257" y="311"/>
      <point x="292" y="249"/>
      <point x="376" y="249" type="curve" smooth="yes"/>
      <point x="437" y="249"/>
      <point x="504" y="282"/>
      <point x="531" y="350" type="curve"/>
      <point x="525" y="355" type="line"/>
      <point x="505" y="317"/>
      <point x="457" y="307"/>
      <point x="424" y="307" type="curve" smooth="yes"/>
      <point x="341" y="307"/>
      <point x="309" y="369"/>
      <point x="226" y="369" type="curve"/>
    </contour>
    <contour>
      <point x="303" y="622"/>
      <point x="255" y="591"/>
      <point x="203" y="557" type="curve" smooth="yes"/>
      <point x="181" y="543"/>
      <point x="170" y="544"/>
      <point x="170" y="574" type="curve" smooth="yes"/>
      <point x="170" y="583"/>
      <point x="171" y="594"/>
      <point x="173" y="608" type="curve"/>
      <point x="151" y="608" type="line"/>
      <point x="142" y="557"/>
      <point x="129" y="499"/>
      <point x="108" y="422" type="curve"/>
      <point x="130" y="422" type="line"/>
      <point x="149" y="462"/>
      <point x="168" y="490"/>
      <point x="204" y="526" type="curve" smooth="yes"/>
      <point x="254" y="577"/>
      <point x="326" y="604"/>
      <point x="382" y="604" type="curve" smooth="yes"/>
      <point x="470" y="604"/>
      <point x="525" y="539"/>
      <point x="525" y="402" type="curve" smooth="yes"/>
      <point x="525" y="186"/>
      <point x="389" y="4"/>
      <point x="227" y="4" type="curve" smooth="yes"/>
      <point x="160" y="4"/>
      <point x="108" y="35"/>
      <point x="86" y="82" type="curve" smooth="yes"/>
      <point x="69" y="118"/>
      <point x="68" y="167"/>
      <point x="73" y="207" type="curve"/>
      <point x="51" y="207" type="line"/>
      <point x="28" y="116"/>
      <point x="7" y="49"/>
      <point x="-10" y="0" type="curve"/>
      <point x="12" y="0" type="line"/>
      <point x="32" y="54"/>
      <point x="48" y="72"/>
      <point x="67" y="51" type="curve" smooth="yes"/>
      <point x="100" y="15"/>
      <point x="130" y="-14"/>
      <point x="221" y="-14" type="curve" smooth="yes"/>
      <point x="455" y="-14"/>
      <point x="625" y="178"/>
      <point x="625" y="387" type="curve" smooth="yes"/>
      <point x="625" y="535"/>
      <point x="539" y="622"/>
      <point x="391" y="622" type="curve" smooth="yes"/>
    </contour>
  </outline>
</glyph>
<glyph name="uni0454.smcp" format="1">
  <advance width="662"/>
  <outline>
    <contour>
      <point x="512" y="249"/>
      <point x="551" y="286"/>
      <point x="595" y="336" type="curve"/>
      <point x="585" y="348" type="line"/>
      <point x="557" y="322"/>
      <point x="521" y="307"/>
      <point x="490" y="307" type="curve" smooth="yes"/>
      <point x="417" y="307"/>
      <point x="382" y="369"/>
      <point x="298" y="369" type="curve" smooth="yes"/>
      <point x="237" y="369"/>
      <point x="170" y="334"/>
      <point x="143" y="266" type="curve"/>
      <point x="149" y="263" type="line"/>
      <point x="169" y="301"/>
      <point x="217" y="311"/>
      <point x="250" y="311" type="curve" smooth="yes"/>
      <point x="333" y="311"/>
      <point x="365" y="249"/>
      <point x="448" y="249" type="curve" smooth="yes"/>
    </contour>
    <contour>
      <point x="357" y="-14"/>
      <point x="411" y="14"/>
      <point x="464" y="51" type="curve" smooth="yes"/>
      <point x="487" y="67"/>
      <point x="497" y="61"/>
      <point x="497" y="34" type="curve" smooth="yes"/>
      <point x="497" y="25"/>
      <point x="496" y="14"/>
      <point x="494" y="0" type="curve"/>
      <point x="516" y="0" type="line"/>
      <point x="525" y="51"/>
      <point x="540" y="132"/>
      <point x="562" y="199" type="curve"/>
      <point x="540" y="199" type="line"/>
      <point x="522" y="161"/>
      <point x="500" y="120"/>
      <point x="463" y="82" type="curve" smooth="yes"/>
      <point x="413" y="31"/>
      <point x="342" y="4"/>
      <point x="283" y="4" type="curve" smooth="yes"/>
      <point x="197" y="4"/>
      <point x="142" y="64"/>
      <point x="142" y="176" type="curve" smooth="yes"/>
      <point x="142" y="365"/>
      <point x="278" y="604"/>
      <point x="443" y="604" type="curve" smooth="yes"/>
      <point x="503" y="604"/>
      <point x="554" y="578"/>
      <point x="580" y="526" type="curve" smooth="yes"/>
      <point x="593" y="500"/>
      <point x="600" y="462"/>
      <point x="599" y="411" type="curve"/>
      <point x="621" y="411" type="line"/>
      <point x="649" y="527"/>
      <point x="660" y="559"/>
      <point x="677" y="608" type="curve"/>
      <point x="655" y="608" type="line"/>
      <point x="635" y="553"/>
      <point x="617" y="536"/>
      <point x="600" y="557" type="curve" smooth="yes"/>
      <point x="571" y="591"/>
      <point x="532" y="622"/>
      <point x="452" y="622" type="curve" smooth="yes"/>
      <point x="199" y="622"/>
      <point x="42" y="393"/>
      <point x="42" y="196" type="curve" smooth="yes"/>
      <point x="42" y="61"/>
      <point x="128" y="-14"/>
      <point x="274" y="-14" type="curve" smooth="yes"/>
    </contour>
  </outline>
</glyph>
<glyph name="uni045F.smcp" format="1">
  <advance width="758"/>
  <outline>
    <contour>
      <point x="275" y="0"/>
      <point x="328" y="0"/>
      <point x="381" y="0" type="curve" smooth="yes"/>
      <point x="413" y="0"/>
      <point x="463" y="3"/>
      <point x="509" y="3" type="curve" smooth="yes"/>
      <point x="561" y="3"/>
      <point x="609" y="2"/>
      <point x="637" y="0" type="curve"/>
      <point x="641" y="20" type="line"/>
      <point x="573" y="23"/>
      <point x="563" y="33"/>
      <point x="582" y="106" type="curve" smooth="yes"/>
      <point x="687" y="502" type="line" smooth="yes"/>
      <point x="706" y="575"/>
      <point x="724" y="585"/>
      <point x="790" y="588" type="curve"/>
      <point x="795" y="608" type="line"/>
      <point x="766" y="606"/>
      <point x="718" y="605"/>
      <point x="666" y="605" type="curve" smooth="yes"/>
      <point x="620" y="605"/>
      <point x="570" y="606"/>
      <point x="539" y="608" type="curve"/>
      <point x="535" y="588" type="line"/>
      <point x="603" y="585"/>
      <point x="613" y="575"/>
      <point x="594" y="502" type="curve" smooth="yes"/>
      <point x="489" y="106" type="line" smooth="yes"/>
      <point x="470" y="33"/>
      <point x="455" y="20"/>
      <point x="386" y="20" type="curve" smooth="yes"/>
      <point x="227" y="20" type="line" smooth="yes"/>
      <point x="160" y="20"/>
      <point x="148" y="33"/>
      <point x="168" y="106" type="curve" smooth="yes"/>
      <point x="273" y="502" type="line" smooth="yes"/>
      <point x="292" y="575"/>
      <point x="308" y="585"/>
      <point x="376" y="588" type="curve"/>
      <point x="380" y="608" type="line"/>
      <point x="349" y="606"/>
      <point x="299" y="605"/>
      <point x="253" y="605" type="curve" smooth="yes"/>
      <point x="201" y="605"/>
      <point x="153" y="606"/>
      <point x="125" y="608" type="curve"/>
      <point x="121" y="588" type="line"/>
      <point x="189" y="585"/>
      <point x="199" y="575"/>
      <point x="180" y="502" type="curve" smooth="yes"/>
      <point x="75" y="106" type="line" smooth="yes"/>
      <point x="56" y="33"/>
      <point x="43" y="23"/>
      <point x="-26" y="20" type="curve"/>
      <point x="-31" y="0" type="line"/>
      <point x="-2" y="2"/>
      <point x="44" y="3"/>
      <point x="96" y="3" type="curve" smooth="yes"/>
      <point x="142" y="3"/>
      <point x="192" y="0"/>
      <point x="222" y="0" type="curve" smooth="yes"/>
    </contour>
    <contour>
      <point x="178" y="2" type="line"/>
      <point x="268" y="2"/>
      <point x="269" y="-42"/>
      <point x="246" y="-160" type="curve"/>
      <point x="269" y="-160" type="line"/>
      <point x="314" y="-42"/>
      <point x="339" y="2"/>
      <point x="429" y="2" type="curve"/>
      <point x="308" y="18" type="line"/>
    </contour>
  </outline>
</glyph>
<glyph name="uni0491.smcp" format="1">
  <advance width="522"/>
  <outline>
    <contour>
      <point x="395" y="608"/>
      <point x="301" y="605"/>
      <point x="257" y="605" type="curve" smooth="yes"/>
      <point x="229" y="605"/>
      <point x="172" y="605"/>
      <point x="128" y="608" type="curve"/>
      <point x="123" y="588" type="line"/>
      <point x="190" y="585"/>
      <point x="200" y="575"/>
      <point x="181" y="502" type="curve" smooth="yes"/>
      <point x="74" y="106" type="line" smooth="yes"/>
      <point x="55" y="33"/>
      <point x="39" y="23"/>
      <point x="-29" y="20" type="curve"/>
      <point x="-33" y="0" type="line"/>
      <point x="-5" y="2"/>
      <point x="41" y="3"/>
      <point x="93" y="3" type="curve" smooth="yes"/>
      <point x="147" y="3"/>
      <point x="207" y="2"/>
      <point x="242" y="0" type="curve"/>
      <point x="246" y="20" type="line"/>
      <point x="162" y="23"/>
      <point x="147" y="33"/>
      <point x="167" y="106" type="curve" smooth="yes"/>
      <point x="274" y="502" type="line" smooth="yes"/>
      <point x="293" y="575"/>
      <point x="309" y="585"/>
      <point x="377" y="585" type="curve" smooth="yes"/>
      <point x="581" y="585" type="line"/>
      <point x="588" y="632"/>
      <point x="599" y="680"/>
      <point x="605" y="703" type="curve" smooth="yes"/>
      <point x="612" y="727"/>
      <point x="619" y="750"/>
      <point x="625" y="765" type="curve"/>
      <point x="602" y="765" type="line"/>
      <point x="560" y="647"/>
      <point x="538" y="608"/>
      <point x="456" y="608" type="curve" smooth="yes"/>
    </contour>
  </outline>
</glyph>
<glyph name="x.smcp" format="1">
  <advance width="676"/>
  <outline>
    <contour>
      <point x="370" y="466" type="line" smooth="yes"/>
      <point x="362" y="539"/>
      <point x="336" y="622"/>
      <point x="239" y="622" type="curve" smooth="yes"/>
      <point x="182" y="622"/>
      <point x="142" y="589"/>
      <point x="117" y="515" type="curve" smooth="yes"/>
      <point x="91" y="438" type="line"/>
      <point x="111" y="438" type="line"/>
      <point x="128" y="489" type="line" smooth="yes"/>
      <point x="147" y="543"/>
      <point x="168" y="567"/>
      <point x="208" y="567" type="curve" smooth="yes"/>
      <point x="261" y="567"/>
      <point x="280" y="515"/>
      <point x="287" y="453" type="curve" smooth="yes"/>
      <point x="322" y="142" type="line" smooth="yes"/>
      <point x="330" y="69"/>
      <point x="356" y="-14"/>
      <point x="453" y="-14" type="curve" smooth="yes"/>
      <point x="510" y="-14"/>
      <point x="550" y="19"/>
      <point x="575" y="93" type="curve" smooth="yes"/>
      <point x="601" y="170" type="line"/>
      <point x="581" y="170" type="line"/>
      <point x="564" y="119" type="line" smooth="yes"/>
      <point x="545" y="65"/>
      <point x="524" y="41"/>
      <point x="484" y="41" type="curve" smooth="yes"/>
      <point x="431" y="41"/>
      <point x="412" y="93"/>
      <point x="405" y="155" type="curve" smooth="yes"/>
    </contour>
    <contour>
      <point x="617" y="585"/>
      <point x="605" y="561"/>
      <point x="603" y="542" type="curve" smooth="yes"/>
      <point x="601" y="521"/>
      <point x="611" y="499"/>
      <point x="641" y="499" type="curve" smooth="yes"/>
      <point x="680" y="499"/>
      <point x="697" y="536"/>
      <point x="700" y="563" type="curve" smooth="yes"/>
      <point x="703" y="594"/>
      <point x="689" y="622"/>
      <point x="641" y="622" type="curve" smooth="yes"/>
      <point x="610" y="622"/>
      <point x="579" y="611"/>
      <point x="549" y="587" type="curve" smooth="yes"/>
      <point x="491" y="541"/>
      <point x="422" y="442"/>
      <point x="371" y="340" type="curve"/>
      <point x="376" y="313" type="line"/>
      <point x="444" y="452"/>
      <point x="517" y="543"/>
      <point x="568" y="580" type="curve" smooth="yes"/>
      <point x="588" y="593"/>
      <point x="609" y="600"/>
      <point x="632" y="601" type="curve" smooth="yes"/>
      <point x="633" y="601"/>
      <point x="634" y="601"/>
      <point x="635" y="601" type="curve"/>
    </contour>
    <contour>
      <point x="35" y="7"/>
      <point x="34" y="7"/>
      <point x="33" y="7" type="curve"/>
      <point x="51" y="23"/>
      <point x="63" y="47"/>
      <point x="65" y="66" type="curve" smooth="yes"/>
      <point x="67" y="87"/>
      <point x="57" y="109"/>
      <point x="27" y="109" type="curve" smooth="yes"/>
      <point x="-12" y="109"/>
      <point x="-29" y="72"/>
      <point x="-32" y="45" type="curve" smooth="yes"/>
      <point x="-35" y="14"/>
      <point x="-21" y="-14"/>
      <point x="27" y="-14" type="curve" smooth="yes"/>
      <point x="58" y="-14"/>
      <point x="89" y="-1"/>
      <point x="119" y="21" type="curve" smooth="yes"/>
      <point x="188" y="72"/>
      <point x="278" y="182"/>
      <point x="332" y="292" type="curve"/>
      <point x="328" y="325" type="line"/>
      <point x="250" y="166"/>
      <point x="160" y="67"/>
      <point x="100" y="28" type="curve" smooth="yes"/>
      <point x="80" y="14"/>
      <point x="59" y="8"/>
      <point x="36" y="7" type="curve" smooth="yes"/>
    </contour>
  </outline>
</glyph>
<glyph name="z.smcp" format="1">
  <advance width="654"/>
  <outline>
    <contour>
      <point x="465" y="296" type="line"/>
      <point x="465" y="296"/>
      <point x="473" y="316"/>
      <point x="473" y="316" type="curve"/>
      <point x="200" y="316" type="line"/>
      <point x="193" y="296" type="line"/>
    </contour>
    <contour>
      <point x="487" y="196"/>
      <point x="513" y="172"/>
      <point x="513" y="132" type="curve" smooth="yes"/>
      <point x="513" y="91"/>
      <point x="490" y="66"/>
      <point x="445" y="66" type="curve" smooth="yes"/>
      <point x="359" y="66"/>
      <point x="316" y="122"/>
      <point x="231" y="122" type="curve" smooth="yes"/>
      <point x="175" y="122"/>
      <point x="114" y="101"/>
      <point x="58" y="68" type="curve"/>
      <point x="625" y="538" type="line"/>
      <point x="696" y="565"/>
      <point x="710" y="599"/>
      <point x="694" y="613" type="curve" smooth="yes"/>
      <point x="674" y="630"/>
      <point x="636" y="603"/>
      <point x="606" y="560" type="curve"/>
      <point x="552" y="533"/>
      <point x="514" y="515"/>
      <point x="458" y="515" type="curve" smooth="yes"/>
      <point x="363" y="515"/>
      <point x="327" y="622"/>
      <point x="229" y="622" type="curve" smooth="yes"/>
      <point x="154" y="622"/>
      <point x="108" y="570"/>
      <point x="108" y="499" type="curve" smooth="yes"/>
      <point x="108" y="422"/>
      <point x="163" y="392"/>
      <point x="214" y="383" type="curve"/>
      <point x="214" y="383"/>
      <point x="218" y="403"/>
      <point x="218" y="403" type="curve"/>
      <point x="172" y="412"/>
      <point x="146" y="436"/>
      <point x="146" y="476" type="curve" smooth="yes"/>
      <point x="146" y="517"/>
      <point x="169" y="542"/>
      <point x="214" y="542" type="curve" smooth="yes"/>
      <point x="300" y="542"/>
      <point x="343" y="486"/>
      <point x="428" y="486" type="curve" smooth="yes"/>
      <point x="484" y="486"/>
      <point x="545" y="507"/>
      <point x="601" y="540" type="curve"/>
      <point x="34" y="70" type="line"/>
      <point x="-37" y="43"/>
      <point x="-51" y="9"/>
      <point x="-35" y="-5" type="curve" smooth="yes"/>
      <point x="-16" y="-22"/>
      <point x="23" y="5"/>
      <point x="53" y="48" type="curve"/>
      <point x="107" y="75"/>
      <point x="145" y="93"/>
      <point x="201" y="93" type="curve" smooth="yes"/>
      <point x="296" y="93"/>
      <point x="332" y="-14"/>
      <point x="430" y="-14" type="curve" smooth="yes"/>
      <point x="505" y="-14"/>
      <point x="551" y="38"/>
      <point x="551" y="109" type="curve" smooth="yes"/>
      <point x="551" y="186"/>
      <point x="496" y="216"/>
      <point x="445" y="225" type="curve"/>
      <point x="445" y="225"/>
      <point x="441" y="205"/>
      <point x="441" y="205" type="curve"/>
    </contour>
    <contour>
      <point x="442" y="608" type="move" name="top"/>
    </contour>
    <contour>
      <point x="224" y="0" type="move" name="bottom"/>
    </contour>
  </outline>
</glyph>
<glyph name="zero.lf" format="1">
  <advance width="575"/>
  <outline>
    <contour>
      <point x="224" y="722"/>
      <point x="51" y="439"/>
      <point x="51" y="192" type="curve" smooth="yes"/>
      <point x="51" y="50"/>
      <point x="106" y="-14"/>
      <point x="194" y="-14" type="curve" smooth="yes"/>
      <point x="383" y="-14"/>
      <point x="555" y="270"/>
      <point x="555" y="517" type="curve" smooth="yes"/>
      <point x="555" y="659"/>
      <point x="500" y="722"/>
      <point x="408" y="722" type="curve" smooth="yes"/>
    </contour>
    <contour>
      <point x="440" y="704"/>
      <point x="464" y="657"/>
      <point x="464" y="564" type="curve" smooth="yes"/>
      <point x="464" y="333"/>
      <point x="340" y="4"/>
      <point x="201" y="4" type="curve" smooth="yes"/>
      <point x="166" y="4"/>
      <point x="142" y="51"/>
      <point x="142" y="144" type="curve" smooth="yes"/>
      <point x="142" y="375"/>
      <point x="266" y="704"/>
      <point x="405" y="704" type="curve" smooth="yes"/>
    </contour>
  </outline>
</glyph>
<glyph name="zero.sups" format="1">
  <advance width="402"/>
  <outline>
    <contour>
      <point x="210" y="754"/>
      <point x="110" y="646"/>
      <point x="110" y="541" type="curve" smooth="yes"/>
      <point x="110" y="469"/>
      <point x="156" y="429"/>
      <point x="229" y="429" type="curve" smooth="yes"/>
      <point x="349" y="429"/>
      <point x="450" y="537"/>
      <point x="450" y="643" type="curve" smooth="yes"/>
      <point x="450" y="713"/>
      <point x="405" y="754"/>
      <point x="331" y="754" type="curve" smooth="yes"/>
    </contour>
    <contour>
      <point x="360" y="734"/>
      <point x="390" y="716"/>
      <point x="390" y="654" type="curve" smooth="yes"/>
      <point x="390" y="568"/>
      <point x="333" y="449"/>
      <point x="237" y="449" type="curve" smooth="yes"/>
      <point x="200" y="449"/>
      <point x="170" y="467"/>
      <point x="170" y="530" type="curve" smooth="yes"/>
      <point x="170" y="616"/>
      <point x="227" y="734"/>
      <point x="323" y="734" type="curve" smooth="yes"/>
    </contour>
  </outline>
</glyph>
